<svg version="1.1" xmlns="http://www.w3.org/2000/svg" style="display: block;" viewBox="0 0 2000 2000" width="500" height="500" preserveAspectRatio="none">
<defs>
	<linearGradient id="Gradient1" gradientUnits="userSpaceOnUse" x1="1066.16" y1="693.856" x2="1071.95" y2="712.016">
		<stop class="stop0" offset="0" stop-opacity="1" stop-color="rgb(255,196,44)"/>
		<stop class="stop1" offset="1" stop-opacity="1" stop-color="rgb(255,233,92)"/>
	</linearGradient>
	<linearGradient id="Gradient2" gradientUnits="userSpaceOnUse" x1="912.955" y1="908.137" x2="903.045" y2="896.863">
		<stop class="stop0" offset="0" stop-opacity="1" stop-color="rgb(255,193,67)"/>
		<stop class="stop1" offset="1" stop-opacity="1" stop-color="rgb(255,216,45)"/>
	</linearGradient>
	<linearGradient id="Gradient3" gradientUnits="userSpaceOnUse" x1="893.359" y1="867.217" x2="895.573" y2="871.682">
		<stop class="stop0" offset="0" stop-opacity="1" stop-color="rgb(254,180,50)"/>
		<stop class="stop1" offset="1" stop-opacity="1" stop-color="rgb(255,204,63)"/>
	</linearGradient>
	<linearGradient id="Gradient4" gradientUnits="userSpaceOnUse" x1="977.662" y1="903.805" x2="973.115" y2="849.612">
		<stop class="stop0" offset="0" stop-opacity="1" stop-color="rgb(237,130,3)"/>
		<stop class="stop1" offset="1" stop-opacity="1" stop-color="rgb(252,189,2)"/>
	</linearGradient>
	<linearGradient id="Gradient5" gradientUnits="userSpaceOnUse" x1="838.945" y1="819.105" x2="890.992" y2="713.544">
		<stop class="stop0" offset="0" stop-opacity="1" stop-color="rgb(249,160,4)"/>
		<stop class="stop1" offset="1" stop-opacity="1" stop-color="rgb(255,214,68)"/>
	</linearGradient>
	<linearGradient id="Gradient6" gradientUnits="userSpaceOnUse" x1="789.176" y1="1043.33" x2="879.706" y2="946.117">
		<stop class="stop0" offset="0" stop-opacity="1" stop-color="rgb(254,164,27)"/>
		<stop class="stop1" offset="1" stop-opacity="1" stop-color="rgb(248,223,62)"/>
	</linearGradient>
	<linearGradient id="Gradient7" gradientUnits="userSpaceOnUse" x1="1132.24" y1="899.043" x2="1276.22" y2="942.307">
		<stop class="stop0" offset="0" stop-opacity="1" stop-color="rgb(254,180,43)"/>
		<stop class="stop1" offset="1" stop-opacity="1" stop-color="rgb(255,214,41)"/>
	</linearGradient>
</defs>
<path transform="translate(0,0)" fill="rgb(122,15,6)" d="M 786.37 798.899 C 778.26 783.998 754.175 741.593 745.329 724.776 C 744.634 723.455 748.27 718.725 750.176 717.362 C 782.116 694.521 826.074 686.321 864.033 690.079 C 906.478 694.281 929.158 711.155 955.047 742.081 C 961.239 741.179 966.104 741.928 971.563 745.211 C 973.038 747.549 972.764 746.28 972.146 749.188 C 969.798 751.727 966.941 751.763 963.399 752.467 L 962.348 753.817 C 964.86 758.34 966.694 762.298 968.846 766.962 C 975.272 766.833 979.469 765.939 984.344 770.153 C 987.019 778.087 977.271 779.265 971.543 780.279 C 972.234 785.657 972.791 790.41 973.206 795.832 C 971.969 804.635 970.969 814.326 970.081 823.214 C 969.219 826.869 968.782 827.594 969.969 831.212 C 968.773 835.095 968.253 837.21 966.381 840.769 C 971.987 840.845 976.441 841.495 981.93 842.439 C 989.17 843.685 994.139 837.331 1000.27 834.123 L 1001.17 833.664 C 1022.48 822.116 1043.86 814.626 1068.76 817.663 C 1076.81 784.331 1093.25 759.582 1122.42 741.21 C 1144.72 727.166 1179.68 722.521 1204.94 729.377 C 1303.08 756.024 1313.46 895.424 1292.3 977.581 C 1283.12 1013.65 1267.35 1048.58 1233.38 1067.3 C 1205.46 1082.69 1176.92 1093.65 1145.57 1085.2 C 1098.99 1072.64 1073.57 1037.23 1072.44 989.707 C 1071.87 965.768 1081.9 916.774 1055.05 904.247 C 1045.72 900.36 1025.66 906.028 1015.93 909.69 C 1026.94 926.667 1035.1 938.101 1043.59 956.776 C 1050.11 956.113 1061.5 954.427 1061.39 964.263 C 1058.14 969.347 1054.04 969.425 1048.47 970.09 C 1052.63 980.037 1051.96 988.073 1063.32 988.682 C 1070.58 992.762 1071.5 997.408 1065.05 1003.45 C 1061.41 1003.37 1059.33 1002.38 1057.24 1005.82 C 1057.78 1008.65 1059.12 1014.2 1058.83 1016.84 C 1060.3 1021.16 1059.44 1021.09 1062.42 1022.87 L 1065.63 1022.29 C 1074.57 1024.47 1078.08 1032.25 1070.15 1037.7 C 1066.9 1044.29 1065 1050.67 1063.28 1057.82 C 1069.04 1058.25 1073.79 1059.04 1074.14 1065.7 C 1071.78 1071.27 1068.19 1072.63 1062.4 1074 C 1058.37 1080.57 1057.14 1083.22 1054.2 1090.38 C 1059.94 1091.46 1066.66 1091.83 1070.03 1096.57 C 1070.98 1104.94 1052.23 1107.47 1046.91 1111.25 C 1038.93 1116.92 1033.37 1124.85 1024.18 1128.72 C 1017.03 1133.96 1008.6 1137.65 999.726 1138.52 C 965.462 1151.14 934.29 1159.6 897.376 1152.6 C 776.669 1129.71 707.02 1007.76 689.597 894.967 C 684.568 862.413 687.301 854.575 723.127 860.367 C 730.726 861.595 738.044 869.319 741.386 875.955 L 741.9 877.001 C 749.696 889.891 753.47 912.941 761.425 927.09 C 765.946 928.17 768.264 928.339 771.912 931.131 C 774.056 934.996 774.01 935.766 771.378 939.754 L 769.184 945.336 C 770.456 948.806 771.766 952.262 773.115 955.703 C 779.78 955.004 782.225 954.737 788.114 957.815 C 790.459 961.092 790.497 963.237 787.668 966.581 C 783.212 975.121 782.951 976.467 788.438 984.484 C 794.717 983.954 803.995 983.709 808.392 989.162 C 808.26 994.059 800.871 996.402 796.713 998.377 C 798.743 1002.86 799.513 1001.66 800.707 1006.95 L 802.525 1009.68 C 809.985 1007.51 827.445 1003.77 829.643 1014.42 L 828.236 1017.99 C 826.288 1022.13 824.965 1024.62 827.135 1029.06 C 827.035 1030.91 827.224 1030.97 826.61 1032.64 C 828.175 1035.24 828.164 1035.64 830.708 1037.4 C 833.682 1040.08 837.035 1043.34 841.038 1044.34 C 850.332 1052.74 863.735 1060.04 875.833 1064.18 C 913.591 1077.1 967.916 1069.44 982.451 1026.56 C 990.863 1001.74 985.461 965.81 973.778 942.627 C 966.661 928.505 951.387 909.3 932.839 913.018 C 924.358 915.214 912.139 926.541 903.896 931.249 C 891.406 938.382 878.723 945.557 866.08 952.621 C 852.197 933.633 835.406 893.287 825.225 870.546 C 855.729 863.159 900.324 851.971 910.571 819.805 C 927.686 766.079 870.63 760.916 835.001 774.469 C 814.648 782.212 803.832 789.666 786.37 798.899 z M 977.14 853.853 C 979.038 851.868 979.731 851.542 980.427 848.904 L 979.271 847.349 C 973.032 845.734 964.79 847.231 960.148 851.914 L 958.475 856.306 C 961.664 863.141 972.973 857.318 977.14 853.853 z M 1120.33 842.955 C 1119.17 847.886 1117.66 852.684 1122.82 855.957 C 1131.08 855.827 1135.95 854.839 1142.84 859.189 C 1146.47 867.579 1130.81 869.234 1126.8 870.707 L 1127.42 874.013 C 1131.42 877.412 1131.33 879.201 1132.29 884.494 C 1138.95 885.611 1147.93 883.878 1151.73 888.473 C 1152.57 891.507 1151.95 892.075 1150.81 895.068 C 1148.14 897.667 1143.14 898.838 1139.43 900.042 L 1133.75 908.251 C 1133.15 911.126 1132.48 912.808 1133.37 915.593 C 1138.96 920.522 1152.89 915.545 1147.88 927.048 C 1144.41 930.339 1142.6 930.681 1137.97 932.334 C 1136.14 937.935 1138.5 941.719 1136.73 949.037 C 1142.7 949.285 1147.88 949.287 1148.78 956.345 C 1147.26 960.005 1147.12 959.813 1143.89 962.348 C 1140.61 973.793 1148.98 983.024 1154 992.33 C 1172.27 999.058 1189.92 990.937 1202.81 977.848 C 1222.14 957.969 1227.05 927.236 1227.05 900.553 C 1226.97 874.852 1220.49 843.678 1201.99 824.728 C 1181.76 803.997 1146 805.846 1126.71 826.905 C 1134.05 827.42 1139.02 826.629 1143.8 831.862 L 1144.4 834.094 C 1139.35 841.293 1128.15 838.252 1120.33 842.955 z M 927.856 766.617 L 923.949 767.943 C 927.167 772.048 930.926 776.59 933.804 780.876 L 934.584 778.451 C 933.59 773.987 931.236 771.132 928.703 767.265 L 927.856 766.617 z"/>
<path transform="translate(0,0)" fill="rgb(247,169,6)" d="M 1054.77 1073.79 L 1062.4 1074 C 1058.37 1080.57 1057.14 1083.22 1054.2 1090.38 C 1059.94 1091.46 1066.66 1091.83 1070.03 1096.57 C 1070.98 1104.94 1052.23 1107.47 1046.91 1111.25 C 1038.93 1116.92 1033.37 1124.85 1024.18 1128.72 L 1023.19 1127.89 C 1019.98 1129.32 1017.99 1130.49 1014.47 1130.82 C 1015.59 1128.96 1016.73 1127.1 1017.87 1125.24 C 1018.39 1124.44 1028.91 1115.45 1031.09 1113.05 C 1042.55 1100.46 1047.89 1088.88 1054.77 1073.79 z"/>
<path transform="translate(0,0)" fill="rgb(253,204,51)" d="M 741.9 877.001 C 749.696 889.891 753.47 912.941 761.425 927.09 L 755.246 929.805 C 746.854 912.083 743.434 896.303 741.9 877.001 z"/>
<path transform="translate(0,0)" fill="rgb(120,47,6)" d="M 788.438 984.484 C 794.717 983.954 803.995 983.709 808.392 989.162 C 808.26 994.059 800.871 996.402 796.713 998.377 C 798.743 1002.86 799.513 1001.66 800.707 1006.95 C 794.805 1002.56 789.06 993.901 785.58 987.44 L 788.438 984.484 z"/>
<path transform="translate(0,0)" fill="rgb(142,64,5)" d="M 1054.77 1073.79 C 1054.42 1071.26 1057.37 1059.86 1058.53 1057.17 L 1060.5 1058.86 C 1062.42 1058.44 1062.23 1058.86 1063.28 1057.82 C 1069.04 1058.25 1073.79 1059.04 1074.14 1065.7 C 1071.78 1071.27 1068.19 1072.63 1062.4 1074 L 1054.77 1073.79 z"/>
<path transform="translate(0,0)" fill="rgb(120,47,6)" d="M 802.525 1009.68 C 809.985 1007.51 827.445 1003.77 829.643 1014.42 L 828.236 1017.99 C 823.396 1017.96 817.205 1017.81 812.934 1020.35 C 808.797 1016.38 805.489 1014.44 802.525 1009.68 z"/>
<path transform="translate(0,0)" fill="rgb(120,47,6)" d="M 1058.83 1016.84 C 1060.3 1021.16 1059.44 1021.09 1062.42 1022.87 L 1065.63 1022.29 C 1074.57 1024.47 1078.08 1032.25 1070.15 1037.7 C 1065.69 1038.06 1062.95 1038.06 1059.75 1041.59 C 1057.88 1036.97 1058.37 1022.34 1058.83 1016.84 z"/>
<path transform="translate(0,0)" fill="rgb(120,47,6)" d="M 773.115 955.703 C 779.78 955.004 782.225 954.737 788.114 957.815 C 790.459 961.092 790.497 963.237 787.668 966.581 C 782.245 967.588 779.121 967.911 774.033 970.17 C 769.91 967.283 769.981 964.144 768.901 959.001 L 773.115 955.703 z"/>
<path transform="translate(0,0)" fill="rgb(120,47,6)" d="M 1001.17 833.664 C 997.67 839.598 986.667 845.64 980.625 852.728 L 977.14 853.853 C 979.038 851.868 979.731 851.542 980.427 848.904 L 979.271 847.349 C 973.032 845.734 964.79 847.231 960.148 851.914 C 959.483 849.251 964.124 842.281 966.381 840.769 C 971.987 840.845 976.441 841.495 981.93 842.439 C 989.17 843.685 994.139 837.331 1000.27 834.123 L 1001.17 833.664 z"/>
<path transform="translate(0,0)" fill="rgb(120,47,6)" d="M 1043.59 956.776 C 1050.11 956.113 1061.5 954.427 1061.39 964.263 C 1058.14 969.347 1054.04 969.425 1048.47 970.09 C 1045.52 963.346 1045.31 964.823 1043.59 956.776 z"/>
<path transform="translate(0,0)" fill="rgb(120,47,6)" d="M 761.425 927.09 C 765.946 928.17 768.264 928.339 771.912 931.131 C 774.056 934.996 774.01 935.766 771.378 939.754 C 766.407 939.731 764.034 939.407 759.28 940.998 C 757.991 936.799 756.907 933.875 755.246 929.805 L 761.425 927.09 z"/>
<path transform="translate(0,0)" fill="rgb(120,47,6)" d="M 1057.24 1005.82 C 1056.06 1003.24 1054.85 994.236 1056.13 990.185 C 1058.72 987.826 1058.56 988.672 1063.32 988.682 C 1070.58 992.762 1071.5 997.408 1065.05 1003.45 C 1061.41 1003.37 1059.33 1002.38 1057.24 1005.82 z"/>
<path transform="translate(0,0)" fill="rgb(120,47,6)" d="M 968.846 766.962 C 975.272 766.833 979.469 765.939 984.344 770.153 C 987.019 778.087 977.271 779.265 971.543 780.279 C 969.125 774.727 969.155 773.106 968.846 766.962 z"/>
<path transform="translate(0,0)" fill="rgb(120,47,6)" d="M 955.047 742.081 C 961.239 741.179 966.104 741.928 971.563 745.211 C 973.038 747.549 972.764 746.28 972.146 749.188 C 969.798 751.727 966.941 751.763 963.399 752.467 L 962.348 753.817 L 960.917 753.437 C 958.408 749.427 956.285 746.647 955.047 742.081 z"/>
<path transform="translate(0,0)" fill="rgb(253,204,51)" d="M 759.28 940.998 C 764.034 939.407 766.407 939.731 771.378 939.754 L 769.184 945.336 C 770.456 948.806 771.766 952.262 773.115 955.703 L 768.901 959.001 L 764.256 950.63 L 759.28 940.998 z"/>
<path transform="translate(0,0)" fill="rgb(241,188,77)" d="M 1059.75 1041.59 C 1062.95 1038.06 1065.69 1038.06 1070.15 1037.7 C 1066.9 1044.29 1065 1050.67 1063.28 1057.82 C 1062.23 1058.86 1062.42 1058.44 1060.5 1058.86 L 1058.53 1057.17 C 1059.28 1051.27 1059.57 1047.51 1059.75 1041.59 z"/>
<path transform="translate(0,0)" fill="rgb(253,204,51)" d="M 774.033 970.17 C 779.121 967.911 782.245 967.588 787.668 966.581 C 783.212 975.121 782.951 976.467 788.438 984.484 L 785.58 987.44 C 782.388 983.46 777.028 974.75 774.033 970.17 z"/>
<path transform="translate(0,0)" fill="rgb(253,204,51)" d="M 812.934 1020.35 C 817.205 1017.81 823.396 1017.96 828.236 1017.99 C 826.288 1022.13 824.965 1024.62 827.135 1029.06 C 827.035 1030.91 827.224 1030.97 826.61 1032.64 C 821.326 1029.35 817.308 1024.8 812.934 1020.35 z"/>
<path transform="translate(0,0)" fill="rgb(241,188,77)" d="M 999.726 1138.52 C 1004.02 1134.2 1012.59 1128.44 1017.87 1125.24 C 1016.73 1127.1 1015.59 1128.96 1014.47 1130.82 C 1017.99 1130.49 1019.98 1129.32 1023.19 1127.89 L 1024.18 1128.72 C 1017.03 1133.96 1008.6 1137.65 999.726 1138.52 z"/>
<path transform="translate(0,0)" fill="rgb(245,152,6)" d="M 1099.71 787.379 C 1140.61 729.514 1217.79 725.356 1253.74 790.035 C 1295.05 848.796 1287.94 1002.35 1224.62 1048.57 C 1188.94 1074.62 1130.46 1075.4 1105.65 1034.52 C 1102.35 1029.44 1099.18 1023.2 1098.1 1017.16 C 1083.94 980.353 1100.02 941.494 1086.28 902.152 L 1089.42 899.724 L 1091.31 900.297 C 1090.15 895.64 1089.05 890.97 1088.01 886.286 C 1088.52 872.541 1078.14 858.076 1076.29 847.512 C 1057.4 831.62 1012.39 850.886 996.353 864.74 L 995.532 861.553 C 997.14 859.52 997.673 858.66 998.621 856.251 C 1000.5 853.872 1006.11 849.78 1008.95 848.015 C 1032.06 833.697 1070.4 824.044 1092.63 844.742 C 1111.91 863.275 1114.97 893.865 1114.73 919.036 C 1114.51 942.516 1112.95 963.005 1122.15 984.984 C 1130.9 1005.89 1149.4 1013.45 1170.57 1011.68 C 1258.98 1004.3 1267.43 849.842 1210.36 803.146 C 1170.62 770.637 1126.3 787.966 1096.31 823.769 L 1095 825.247 C 1091.55 825.149 1090.12 823.604 1086.81 821.624 C 1088.79 807.826 1091.8 798.928 1099.71 787.379 z"/>
<path transform="translate(0,0)" fill="rgb(253,204,51)" d="M 1153.91 774.162 C 1168.04 773.468 1177.59 771.587 1191.39 776.979 C 1232.83 793.164 1252.72 835.869 1253.34 878.385 C 1253.96 921.04 1252.46 966.935 1221.1 999.743 C 1196.81 1025.82 1160.41 1029.91 1129.33 1013.26 L 1127.66 1014 C 1121.44 1009.91 1119.74 1006.95 1114.96 1001.38 C 1111.83 1004.57 1108.5 1014.76 1108.39 1019.79 C 1108.24 1027.36 1119.26 1036.53 1125.04 1041.83 L 1125.56 1043.7 C 1113.7 1035.83 1105.11 1024.14 1099.88 1011.05 C 1098.45 1014.04 1098.48 1013.88 1098.1 1017.16 C 1083.94 980.353 1100.02 941.494 1086.28 902.152 L 1089.42 899.724 L 1091.31 900.297 C 1090.15 895.64 1089.05 890.97 1088.01 886.286 C 1088.52 872.541 1078.14 858.076 1076.29 847.512 C 1057.4 831.62 1012.39 850.886 996.353 864.74 L 995.532 861.553 C 997.14 859.52 997.673 858.66 998.621 856.251 C 1000.5 853.872 1006.11 849.78 1008.95 848.015 C 1032.06 833.697 1070.4 824.044 1092.63 844.742 C 1111.91 863.275 1114.97 893.865 1114.73 919.036 C 1114.51 942.516 1112.95 963.005 1122.15 984.984 C 1130.9 1005.89 1149.4 1013.45 1170.57 1011.68 C 1258.98 1004.3 1267.43 849.842 1210.36 803.146 C 1170.62 770.637 1126.3 787.966 1096.31 823.769 L 1095 825.247 C 1091.55 825.149 1090.12 823.604 1086.81 821.624 C 1088.79 807.826 1091.8 798.928 1099.71 787.379 L 1101.46 790.145 L 1102.11 791.296 C 1101.23 794.821 1099.49 796.972 1100.08 800.421 C 1102.43 803.154 1102.27 802.958 1105.62 804.367 C 1106.87 803.611 1106.1 804.185 1107.21 803.023 C 1122.91 786.575 1131.73 778.897 1153.91 774.162 z"/>
<path transform="translate(0,0)" fill="rgb(243,96,2)" d="M 1076.29 847.512 C 1129.06 878.213 1076.15 974.171 1129.33 1013.26 L 1127.66 1014 C 1121.44 1009.91 1119.74 1006.95 1114.96 1001.38 C 1111.83 1004.57 1108.5 1014.76 1108.39 1019.79 C 1108.24 1027.36 1119.26 1036.53 1125.04 1041.83 L 1125.56 1043.7 C 1113.7 1035.83 1105.11 1024.14 1099.88 1011.05 C 1098.45 1014.04 1098.48 1013.88 1098.1 1017.16 C 1083.94 980.353 1100.02 941.494 1086.28 902.152 L 1089.42 899.724 L 1091.31 900.297 C 1090.15 895.64 1089.05 890.97 1088.01 886.286 C 1088.52 872.541 1078.14 858.076 1076.29 847.512 z"/>
<path transform="translate(0,0)" fill="rgb(246,121,24)" d="M 1086.28 902.152 L 1089.42 899.724 L 1091.31 900.297 C 1100.41 928.33 1093.09 957.539 1096.02 987.153 C 1096.82 995.254 1099.37 1004.5 1099.88 1011.05 C 1098.45 1014.04 1098.48 1013.88 1098.1 1017.16 C 1083.94 980.353 1100.02 941.494 1086.28 902.152 z"/>
<path transform="translate(0,0)" fill="rgb(246,121,24)" d="M 1099.71 787.379 L 1101.46 790.145 L 1102.11 791.296 C 1101.23 794.821 1099.49 796.972 1100.08 800.421 C 1102.43 803.154 1102.27 802.958 1105.62 804.367 C 1103.01 808.012 1101.07 810.447 1099.18 814.555 L 1098.31 815.895 C 1096.02 819.38 1094.13 819.629 1093.91 822.578 L 1096.31 823.769 L 1095 825.247 C 1091.55 825.149 1090.12 823.604 1086.81 821.624 C 1088.79 807.826 1091.8 798.928 1099.71 787.379 z"/>
<path transform="translate(0,0)" fill="rgb(186,36,5)" d="M 1102.11 791.296 C 1101.23 794.821 1099.49 796.972 1100.08 800.421 C 1102.43 803.154 1102.27 802.958 1105.62 804.367 C 1103.01 808.012 1101.07 810.447 1099.18 814.555 C 1095.49 816.694 1097.3 816.484 1093.76 816.213 L 1092.55 814.244 C 1092.56 807.396 1097.52 796.198 1102.11 791.296 z"/>
<path transform="translate(0,0)" fill="url(#Gradient7)" d="M 1247.47 795.139 C 1247.87 786.376 1236.83 781.092 1237.53 773.914 C 1242.53 775.554 1249.45 786.856 1252.51 791.372 L 1253.74 790.035 C 1295.05 848.796 1287.94 1002.35 1224.62 1048.57 C 1188.94 1074.62 1130.46 1075.4 1105.65 1034.52 C 1102.35 1029.44 1099.18 1023.2 1098.1 1017.16 C 1098.48 1013.88 1098.45 1014.04 1099.88 1011.05 C 1105.11 1024.14 1113.7 1035.83 1125.56 1043.7 C 1126.7 1045.81 1133.92 1049.94 1136.27 1050.84 C 1155.84 1058.26 1174.1 1058.15 1193.44 1050.78 C 1219.54 1040.83 1233.62 1025 1245.49 1000.14 C 1270.68 947.348 1273.49 888.952 1261.44 832.445 C 1257.99 816.308 1252.28 809.012 1247.86 796.283 L 1247.47 795.139 z"/>
<path transform="translate(0,0)" fill="rgb(246,121,24)" d="M 1101.46 790.145 C 1113.71 770.351 1133.52 759.85 1154.99 752.696 L 1158.49 755.224 C 1170.4 752.009 1159.94 765.388 1170.86 770.435 L 1169.86 770.274 L 1168.93 771.171 C 1163.1 772.288 1160.53 770.77 1155.34 773.435 L 1153.91 774.162 C 1131.73 778.897 1122.91 786.575 1107.21 803.023 C 1106.1 804.185 1106.87 803.611 1105.62 804.367 C 1102.27 802.958 1102.43 803.154 1100.08 800.421 C 1099.49 796.972 1101.23 794.821 1102.11 791.296 L 1101.46 790.145 z"/>
<path transform="translate(0,0)" fill="rgb(253,204,51)" d="M 1099.71 787.379 C 1140.61 729.514 1217.79 725.356 1253.74 790.035 L 1252.51 791.372 C 1249.45 786.856 1242.53 775.554 1237.53 773.914 C 1236.83 781.092 1247.87 786.376 1247.47 795.139 C 1227.22 762.46 1193.47 744.959 1154.99 752.696 C 1133.52 759.85 1113.71 770.351 1101.46 790.145 L 1099.71 787.379 z"/>
<path transform="translate(0,0)" fill="url(#Gradient6)" d="M 708.787 871.239 L 708.062 870.457 C 711.544 869.258 717.844 868.756 721.053 870.973 C 722.566 872.019 730.391 908.42 731.976 913.292 C 738.972 934.802 760.949 987.622 775.95 1003.77 C 779.389 1007.47 784.374 1008.75 787.768 1012.16 C 792.657 1017.06 792.865 1023.7 800.647 1025.74 C 806.195 1027.19 814.525 1036.41 817.194 1041.53 C 817.365 1041.86 817.485 1042.21 817.631 1042.55 L 815.546 1043.56 C 839.433 1067.06 880.721 1085.23 914.374 1085.07 C 920.585 1085.03 926.775 1084.34 932.843 1083 C 938.852 1081.72 959.074 1074.65 962.227 1075.48 C 1008.07 1055.47 1010.7 1000.95 999.739 959.075 C 997.561 950.748 992.084 939.793 988.392 931.987 C 980.009 918.241 972.85 911.143 961.599 900.101 C 964.867 900.555 965.02 900.944 968.076 900.125 L 969.646 898.081 C 975.635 900.308 983.702 903.783 989.583 905.104 C 1023.26 943.716 1043.13 984.693 1041.84 1037.97 C 1041.79 1040.07 1041.08 1046.22 1040.36 1047.75 C 1037.83 1072.15 1025.78 1094.56 1006.83 1110.13 C 991.598 1122.65 970.584 1131.76 951.012 1134.43 C 936.688 1140.22 903.689 1136.71 888.46 1132.89 C 856.188 1125.37 829.311 1106.16 804.582 1085.04 C 747.271 1031.22 716.891 958.623 705.748 881.823 C 705.233 879.335 704.689 876.854 704.114 874.38 C 705.636 871.362 704.477 872.689 708.787 871.239 z"/>
<path transform="translate(0,0)" fill="rgb(247,169,6)" d="M 968.076 900.125 L 969.646 898.081 C 975.635 900.308 983.702 903.783 989.583 905.104 C 1023.26 943.716 1043.13 984.693 1041.84 1037.97 C 1041.79 1040.07 1041.08 1046.22 1040.36 1047.75 C 1037.83 1072.15 1025.78 1094.56 1006.83 1110.13 C 991.598 1122.65 970.584 1131.76 951.012 1134.43 C 936.688 1140.22 903.689 1136.71 888.46 1132.89 C 856.188 1125.37 829.311 1106.16 804.582 1085.04 L 806.394 1081.2 C 811.292 1085.52 815.801 1089.58 821.021 1093.52 C 825.812 1086.5 821.221 1085.65 825.508 1076.99 C 846.354 1089.46 858.711 1096.13 882.17 1102.43 C 901.683 1102.41 925.202 1108.96 947.704 1101.28 C 963.412 1095.93 996.217 1079.18 1002.76 1063.95 C 1002.7 1060.98 1003.3 1062.11 1001.51 1060.21 C 1000.66 1062.24 1001.26 1061.47 999.94 1062.67 L 999.527 1061.28 C 995.106 1061.17 1000.18 1062.36 993.285 1063.78 C 1013.16 1042.74 1019.75 1027.77 1018.24 998.554 C 1016.79 970.311 1007.57 948.379 992.637 924.707 C 989.598 924.796 990.96 924.302 988.544 926.56 L 988.488 925.826 C 987.16 928.994 987.569 927.987 988.392 931.987 C 980.009 918.241 972.85 911.143 961.599 900.101 C 964.867 900.555 965.02 900.944 968.076 900.125 z"/>
<path transform="translate(0,0)" fill="rgb(253,204,51)" d="M 951.012 1134.43 L 950.676 1133.27 C 954.075 1130.23 964.828 1130.96 969.013 1128.68 C 973.41 1126.29 976.991 1125.27 981.705 1123.66 C 982.219 1120.91 982.244 1122.36 980.038 1119.09 C 973.723 1119.58 960.496 1128.1 951.821 1127.9 C 958.476 1126.12 966.549 1122.06 972.984 1119.44 C 994.333 1110.73 1011.65 1095.43 1020.38 1073.83 C 1024.52 1063.59 1027.6 1060.91 1029.45 1049.53 C 1032.2 1057.82 1015.91 1085.65 1011.67 1093.83 C 1027.3 1101.36 1036.67 1055.15 1039.4 1046.31 L 1040.36 1047.75 C 1037.83 1072.15 1025.78 1094.56 1006.83 1110.13 C 991.598 1122.65 970.584 1131.76 951.012 1134.43 z"/>
<path transform="translate(0,0)" fill="rgb(243,96,2)" d="M 825.508 1076.99 C 846.354 1089.46 858.711 1096.13 882.17 1102.43 C 872.011 1104.14 861.631 1093.88 853.626 1095.79 C 851.713 1099.89 852.672 1102.68 850.613 1108.5 C 851.993 1114.41 858.876 1113.9 864.643 1118.69 C 853.257 1115.18 829.877 1101.48 821.021 1093.52 C 825.812 1086.5 821.221 1085.65 825.508 1076.99 z"/>
<path transform="translate(0,0)" fill="rgb(246,121,24)" d="M 804.582 1085.04 L 806.394 1081.2 C 811.292 1085.52 815.801 1089.58 821.021 1093.52 C 829.877 1101.48 853.257 1115.18 864.643 1118.69 C 866.258 1119.05 888.585 1127.05 888.061 1126.55 C 868.722 1125.56 863.45 1118.9 846.941 1112.61 C 860.572 1123.16 884.244 1128.82 888.46 1132.89 C 856.188 1125.37 829.311 1106.16 804.582 1085.04 z"/>
<path transform="translate(0,0)" fill="rgb(243,96,2)" d="M 961.599 900.101 C 964.867 900.555 965.02 900.944 968.076 900.125 C 977.063 904.6 988.344 915.82 992.637 924.707 C 989.598 924.796 990.96 924.302 988.544 926.56 L 988.488 925.826 C 987.16 928.994 987.569 927.987 988.392 931.987 C 980.009 918.241 972.85 911.143 961.599 900.101 z"/>
<path transform="translate(0,0)" fill="rgb(186,36,5)" d="M 705.748 881.823 C 708.499 886.032 709.146 887.399 712.804 890.681 L 715.538 903.095 C 735.676 972.533 764.332 1033.95 825.508 1076.99 C 821.221 1085.65 825.812 1086.5 821.021 1093.52 C 815.801 1089.58 811.292 1085.52 806.394 1081.2 L 804.582 1085.04 C 747.271 1031.22 716.891 958.623 705.748 881.823 z"/>
<path transform="translate(0,0)" fill="rgb(243,96,2)" d="M 705.748 881.823 C 708.499 886.032 709.146 887.399 712.804 890.681 L 715.538 903.095 C 712.313 909.598 720.673 931.726 723.049 939.849 C 739.123 994.791 764.978 1041.57 806.394 1081.2 L 804.582 1085.04 C 747.271 1031.22 716.891 958.623 705.748 881.823 z"/>
<path transform="translate(0,0)" fill="rgb(213,20,7)" d="M 988.392 931.987 C 987.569 927.987 987.16 928.994 988.488 925.826 L 988.544 926.56 C 990.96 924.302 989.598 924.796 992.637 924.707 C 1007.57 948.379 1016.79 970.311 1018.24 998.554 C 1019.75 1027.77 1013.16 1042.74 993.285 1063.78 C 966.824 1084.97 934.017 1098.25 899.621 1091.98 C 904.542 1090.7 915.136 1090.64 920.696 1090.44 L 904.952 1089.54 C 911.806 1089.56 923.899 1090.11 929.283 1085.84 C 942.184 1082.07 949.663 1081.59 962.227 1075.48 C 1008.07 1055.47 1010.7 1000.95 999.739 959.075 C 997.561 950.748 992.084 939.793 988.392 931.987 z"/>
<path transform="translate(0,0)" fill="rgb(186,36,5)" d="M 708.787 871.239 L 708.062 870.457 C 711.544 869.258 717.844 868.756 721.053 870.973 C 722.566 872.019 730.391 908.42 731.976 913.292 C 738.972 934.802 760.949 987.622 775.95 1003.77 C 779.389 1007.47 784.374 1008.75 787.768 1012.16 C 792.657 1017.06 792.865 1023.7 800.647 1025.74 C 806.195 1027.19 814.525 1036.41 817.194 1041.53 C 817.365 1041.86 817.485 1042.21 817.631 1042.55 L 815.546 1043.56 C 839.433 1067.06 880.721 1085.23 914.374 1085.07 C 920.585 1085.03 926.775 1084.34 932.843 1083 C 938.852 1081.72 959.074 1074.65 962.227 1075.48 C 949.663 1081.59 942.184 1082.07 929.283 1085.84 C 923.899 1090.11 911.806 1089.56 904.952 1089.54 L 920.696 1090.44 C 915.136 1090.64 904.542 1090.7 899.621 1091.98 C 885.615 1091.18 856.62 1082.37 845.224 1074.46 C 827.242 1066.57 782.777 1030.59 779.226 1010.2 C 759.598 990.699 734.649 930.09 726.59 902.772 C 724.924 897.124 722.669 882.03 720.698 874.115 C 718.006 871.952 717.858 872.685 713.557 872.434 L 708.787 871.239 z"/>
<path transform="translate(0,0)" fill="rgb(103,9,5)" d="M 708.787 871.239 L 708.062 870.457 C 711.544 869.258 717.844 868.756 721.053 870.973 C 722.566 872.019 730.391 908.42 731.976 913.292 C 738.972 934.802 760.949 987.622 775.95 1003.77 C 779.389 1007.47 784.374 1008.75 787.768 1012.16 C 792.657 1017.06 792.865 1023.7 800.647 1025.74 C 806.195 1027.19 814.525 1036.41 817.194 1041.53 C 817.365 1041.86 817.485 1042.21 817.631 1042.55 L 815.546 1043.56 C 839.433 1067.06 880.721 1085.23 914.374 1085.07 C 920.585 1085.03 926.775 1084.34 932.843 1083 C 938.852 1081.72 959.074 1074.65 962.227 1075.48 C 949.663 1081.59 942.184 1082.07 929.283 1085.84 C 892.312 1087.7 868.294 1081.57 836.47 1062.35 C 821.159 1051.83 810.484 1043.57 797.478 1029.85 C 791.88 1023.94 785.244 1016.02 779.813 1010.76 L 779.226 1010.2 C 759.598 990.699 734.649 930.09 726.59 902.772 C 724.924 897.124 722.669 882.03 720.698 874.115 C 718.006 871.952 717.858 872.685 713.557 872.434 L 708.787 871.239 z"/>
<path transform="translate(0,0)" fill="rgb(246,121,24)" d="M 708.787 871.239 L 713.557 872.434 C 710.711 880.005 711.472 882.591 712.804 890.681 C 709.146 887.399 708.499 886.032 705.748 881.823 C 705.233 879.335 704.689 876.854 704.114 874.38 C 705.636 871.362 704.477 872.689 708.787 871.239 z"/>
<path transform="translate(0,0)" fill="url(#Gradient5)" d="M 774.857 721.326 C 781.133 716.551 788.51 715.367 795.397 712.975 C 872.061 686.342 966.937 724.795 953.999 817.823 C 950.819 840.687 937.401 850.942 933.361 867.255 L 932.523 865.692 L 932.181 864.26 L 932.505 863.4 L 931.254 864.776 L 930.021 864.354 L 928.258 858.171 C 927.499 860.576 928.366 864.915 928.694 867.719 C 927.389 866.44 926.053 859.918 925.43 857.601 C 920.763 857.612 923.966 860.84 916.398 862.072 C 921.938 856.511 922.801 856.306 922.43 848.716 L 925.64 844.498 C 923.753 844.504 922.502 845.693 919.926 845.897 C 918.828 844.443 918.719 844.391 917.238 843.471 C 931.283 825.241 933.613 802.044 924.557 781.144 C 923.237 779.151 921.819 777.223 920.308 775.37 C 907.873 760.159 894.793 758.277 876.734 756.436 C 886.578 751.83 899.029 762.635 906.476 760.096 L 905.958 757.702 C 896.098 748.587 859.931 755.446 846.788 753.219 C 836.971 755.621 828.576 758.679 819.181 762.431 C 810.129 767.074 801.002 774.6 793.389 778.192 L 792.07 777.111 C 792.717 774.28 793.423 773.138 791.917 770.687 C 782.888 755.991 773.684 741.254 764.725 726.52 C 768.617 724.033 770.576 723.214 774.857 721.326 z M 923.949 767.943 C 927.167 772.048 930.926 776.59 933.804 780.876 L 934.584 778.451 C 933.59 773.987 931.236 771.132 928.703 767.265 L 927.856 766.617 L 923.949 767.943 z"/>
<path transform="translate(0,0)" fill="rgb(245,152,6)" fill-opacity="0.988235" d="M 927.856 766.617 L 928.703 767.265 C 931.236 771.132 933.59 773.987 934.584 778.451 L 933.804 780.876 C 930.926 776.59 927.167 772.048 923.949 767.943 L 927.856 766.617 z"/>
<path transform="translate(0,0)" fill="rgb(247,169,6)" d="M 827.727 714.707 C 855.151 710.124 891.735 719.013 914.601 734.761 C 923.625 740.976 935.98 754.935 937.696 766.068 L 936.11 766.908 L 937.082 769.599 L 935.488 771.59 L 933.793 771.65 L 933.188 770.976 C 931.529 769.147 930.984 768.27 928.703 767.265 L 927.856 766.617 C 910.521 738.249 873.646 735.737 844.847 743.585 C 838.16 745.408 832.005 749.162 825.011 750.641 C 827.469 744.117 827.873 722.085 827.727 714.707 z"/>
<path transform="translate(0,0)" fill="rgb(253,204,51)" d="M 825.011 750.641 C 832.005 749.162 838.16 745.408 844.847 743.585 C 873.646 735.737 910.521 738.249 927.856 766.617 L 923.949 767.943 C 927.167 772.048 930.926 776.59 933.804 780.876 L 933.469 782.579 C 936.497 790.656 939.722 788.28 942.129 798.171 C 941.289 815.802 937.002 829.587 926.308 843.92 L 925.64 844.498 C 923.753 844.504 922.502 845.693 919.926 845.897 C 918.828 844.443 918.719 844.391 917.238 843.471 C 931.283 825.241 933.613 802.044 924.557 781.144 C 923.237 779.151 921.819 777.223 920.308 775.37 C 907.873 760.159 894.793 758.277 876.734 756.436 C 886.578 751.83 899.029 762.635 906.476 760.096 L 905.958 757.702 C 896.098 748.587 859.931 755.446 846.788 753.219 C 836.971 755.621 828.576 758.679 819.181 762.431 C 810.011 762.065 806.497 768.718 798.027 769.073 L 796.562 767.813 L 796.637 763.968 C 801.999 759.72 818.084 753.421 825.011 750.641 z"/>
<path transform="translate(0,0)" fill="rgb(213,20,7)" d="M 846.788 753.219 C 870.562 745.329 906.641 747.321 923.949 767.943 C 927.167 772.048 930.926 776.59 933.804 780.876 L 933.469 782.579 C 936.497 790.656 939.722 788.28 942.129 798.171 C 941.289 815.802 937.002 829.587 926.308 843.92 L 925.64 844.498 C 923.753 844.504 922.502 845.693 919.926 845.897 C 918.828 844.443 918.719 844.391 917.238 843.471 C 931.283 825.241 933.613 802.044 924.557 781.144 C 923.237 779.151 921.819 777.223 920.308 775.37 C 907.873 760.159 894.793 758.277 876.734 756.436 C 886.578 751.83 899.029 762.635 906.476 760.096 L 905.958 757.702 C 896.098 748.587 859.931 755.446 846.788 753.219 z"/>
<path transform="translate(0,0)" fill="rgb(243,96,2)" d="M 924.557 781.144 L 926.181 780.815 L 927.49 782.278 L 930.077 782.038 L 931.97 784.723 C 936.006 799.735 936.027 810.555 931.408 825.856 C 929.064 833.622 922.134 837.788 926.308 843.92 L 925.64 844.498 C 923.753 844.504 922.502 845.693 919.926 845.897 C 918.828 844.443 918.719 844.391 917.238 843.471 C 931.283 825.241 933.613 802.044 924.557 781.144 z"/>
<path transform="translate(0,0)" fill="rgb(246,121,24)" d="M 775.931 726.7 C 786.372 726.1 811.805 716.471 827.727 714.707 C 827.873 722.085 827.469 744.117 825.011 750.641 C 818.084 753.421 801.999 759.72 796.637 763.968 L 796.562 767.813 L 798.027 769.073 C 806.497 768.718 810.011 762.065 819.181 762.431 C 810.129 767.074 801.002 774.6 793.389 778.192 L 792.07 777.111 C 792.717 774.28 793.423 773.138 791.917 770.687 C 782.888 755.991 773.684 741.254 764.725 726.52 C 768.617 724.033 770.576 723.214 774.857 721.326 C 773.157 723.308 771.5 725.326 769.887 727.38 C 772.608 726.414 773.078 726.275 775.931 726.7 z"/>
<path transform="translate(0,0)" fill="rgb(245,152,6)" d="M 764.725 726.52 C 768.617 724.033 770.576 723.214 774.857 721.326 C 773.157 723.308 771.5 725.326 769.887 727.38 C 772.608 726.414 773.078 726.275 775.931 726.7 L 775.947 727.495 L 774.426 729.566 C 776.826 736.191 788.849 756.385 793.031 763.592 L 793.981 765.048 L 796.637 763.968 L 796.562 767.813 L 798.027 769.073 C 806.497 768.718 810.011 762.065 819.181 762.431 C 810.129 767.074 801.002 774.6 793.389 778.192 L 792.07 777.111 C 792.717 774.28 793.423 773.138 791.917 770.687 C 782.888 755.991 773.684 741.254 764.725 726.52 z"/>
<path transform="translate(0,0)" fill="rgb(186,36,5)" d="M 775.947 727.495 C 776.942 727.906 777.937 728.317 778.931 728.728 C 783.582 737.798 788.729 747.179 792.64 756.553 C 794.097 760.046 793.873 761.071 793.031 763.592 C 788.849 756.385 776.826 736.191 774.426 729.566 L 775.947 727.495 z"/>
<path transform="translate(0,0)" fill="rgb(243,96,2)" d="M 928.703 767.265 C 930.984 768.27 931.529 769.147 933.188 770.976 L 933.793 771.65 L 935.488 771.59 L 937.082 769.599 L 936.11 766.908 L 937.696 766.068 C 940.684 777.105 942.461 786.617 942.129 798.171 C 939.722 788.28 936.497 790.656 933.469 782.579 L 933.804 780.876 L 934.584 778.451 C 933.59 773.987 931.236 771.132 928.703 767.265 z"/>
<path transform="translate(0,0)" fill="url(#Gradient4)" d="M 996.353 864.74 C 1012.39 850.886 1057.4 831.62 1076.29 847.512 C 1078.14 858.076 1088.52 872.541 1088.01 886.286 C 1089.05 890.97 1090.15 895.64 1091.31 900.297 L 1089.42 899.724 L 1086.28 902.152 C 1065.12 866.924 1016.74 886.536 989.807 902.824 L 989.583 905.104 C 983.702 903.783 975.635 900.308 969.646 898.081 L 968.076 900.125 C 965.02 900.944 964.867 900.555 961.599 900.101 C 953.545 895.054 948.85 894.046 940.261 890.403 C 932.632 889.647 928.903 889.455 922.171 893.688 C 906.96 903.252 894.964 916.955 879.119 925.821 L 876.297 928.284 L 874.511 922.17 C 873.452 918.804 871.991 915.326 870.683 912.021 C 869.523 913.851 868.377 915.74 867.132 917.506 C 861.691 908.212 858.166 895.672 851.063 885.472 C 850.146 884.669 848.78 882.576 847.998 881.487 C 848.234 878.583 853.941 877.065 857.175 875.985 C 883.241 867.278 897.607 863.028 917.238 843.471 C 918.719 844.391 918.828 844.443 919.926 845.897 C 922.502 845.693 923.753 844.504 925.64 844.498 L 922.43 848.716 C 922.801 856.306 921.938 856.511 916.398 862.072 C 923.966 860.84 920.763 857.612 925.43 857.601 C 926.053 859.918 927.389 866.44 928.694 867.719 C 928.366 864.915 927.499 860.576 928.258 858.171 L 930.021 864.354 L 931.254 864.776 L 932.505 863.4 L 932.181 864.26 L 932.523 865.692 L 933.361 867.255 C 944.039 869.36 949.65 871.017 959.709 875.439 C 977.077 880.363 986.165 866.51 998.621 856.251 C 997.673 858.66 997.14 859.52 995.532 861.553 L 996.353 864.74 z"/>
<path transform="translate(0,0)" fill="rgb(253,204,51)" d="M 989.807 902.824 L 987.028 901.807 C 987.167 888.663 1031.12 873.149 1042.53 871.099 C 1062.53 867.503 1072.63 877.908 1088.01 886.286 C 1089.05 890.97 1090.15 895.64 1091.31 900.297 L 1089.42 899.724 L 1086.28 902.152 C 1065.12 866.924 1016.74 886.536 989.807 902.824 z"/>
<path transform="translate(0,0)" fill="rgb(213,20,7)" d="M 917.238 843.471 C 918.719 844.391 918.828 844.443 919.926 845.897 C 922.502 845.693 923.753 844.504 925.64 844.498 L 922.43 848.716 C 922.801 856.306 921.938 856.511 916.398 862.072 L 915.231 862.63 C 911.985 864.219 908.474 867.697 905.097 869.468 C 890.592 877.075 878.679 881.579 862.721 884.131 L 862.163 883.816 L 862.531 880.034 C 856.843 880.521 855.347 881.647 851.063 885.472 C 850.146 884.669 848.78 882.576 847.998 881.487 C 848.234 878.583 853.941 877.065 857.175 875.985 C 883.241 867.278 897.607 863.028 917.238 843.471 z"/>
<path transform="translate(0,0)" fill="url(#Gradient3)" d="M 862.531 880.034 C 883.167 876.769 908.008 863.884 922.43 848.716 C 922.801 856.306 921.938 856.511 916.398 862.072 L 915.231 862.63 C 911.985 864.219 908.474 867.697 905.097 869.468 C 890.592 877.075 878.679 881.579 862.721 884.131 L 862.163 883.816 L 862.531 880.034 z"/>
<path transform="translate(0,0)" fill="url(#Gradient2)" d="M 879.119 925.821 C 878.307 924.194 877.268 919.542 878.319 917.996 C 884.904 908.317 932.658 871.368 941.971 888.896 L 940.261 890.403 C 932.632 889.647 928.903 889.455 922.171 893.688 C 906.96 903.252 894.964 916.955 879.119 925.821 z"/>
<path transform="translate(0,0)" fill="rgb(246,121,24)" d="M 851.063 885.472 C 855.347 881.647 856.843 880.521 862.531 880.034 L 862.163 883.816 L 860.165 885.358 C 860.587 892.129 867.466 905.321 870.683 912.021 C 869.523 913.851 868.377 915.74 867.132 917.506 C 861.691 908.212 858.166 895.672 851.063 885.472 z"/>
<path transform="translate(0,0)" fill="rgb(241,188,77)" d="M 998.621 856.251 C 997.673 858.66 997.14 859.52 995.532 861.553 L 996.353 864.74 C 980.079 878.361 975.487 882.938 954.076 878.332 C 956.234 876.702 957.216 876.506 959.709 875.439 C 977.077 880.363 986.165 866.51 998.621 856.251 z"/>
<path transform="translate(0,0)" fill="rgb(186,36,5)" d="M 870.683 912.021 C 867.466 905.321 860.587 892.129 860.165 885.358 L 862.163 883.816 L 862.721 884.131 C 866.564 891.993 877.932 913.282 876.551 920.912 C 876.023 921.26 875.045 921.977 874.511 922.17 C 873.452 918.804 871.991 915.326 870.683 912.021 z"/>
<path transform="translate(0,0)" fill="rgb(253,204,51)" d="M 932.523 865.692 L 933.361 867.255 C 944.039 869.36 949.65 871.017 959.709 875.439 C 957.216 876.506 956.234 876.702 954.076 878.332 C 947.39 876.899 933.24 874.427 930.689 867.78 L 932.523 865.692 z"/>
<path transform="translate(0,0)" fill="rgb(120,47,6)" d="M 1120.33 842.955 C 1118.6 845.731 1119.15 847.127 1117.72 850.021 C 1114.69 848.368 1112.51 844.686 1112.39 841.23 C 1114.39 839.754 1114.31 839.81 1115.76 837.793 C 1116.08 834.943 1116.05 834.065 1117.01 831.333 C 1120.43 828.849 1122.67 828.341 1126.71 826.905 C 1134.05 827.42 1139.02 826.629 1143.8 831.862 L 1144.4 834.094 C 1139.35 841.293 1128.15 838.252 1120.33 842.955 z"/>
<path transform="translate(0,0)" fill="rgb(142,64,5)" d="M 1127.42 874.013 C 1131.42 877.412 1131.33 879.201 1132.29 884.494 C 1138.95 885.611 1147.93 883.878 1151.73 888.473 C 1152.57 891.507 1151.95 892.075 1150.81 895.068 C 1148.14 897.667 1143.14 898.838 1139.43 900.042 L 1133.75 908.251 L 1131.88 908.038 C 1129.37 899.606 1129.72 884.207 1127.42 874.013 z"/>
<path transform="translate(0,0)" fill="rgb(120,47,6)" d="M 1133.75 908.251 C 1133.15 911.126 1132.48 912.808 1133.37 915.593 C 1138.96 920.522 1152.89 915.545 1147.88 927.048 C 1144.41 930.339 1142.6 930.681 1137.97 932.334 L 1132.15 932.983 C 1130.73 927.904 1131.6 913.949 1131.88 908.038 L 1133.75 908.251 z"/>
<path transform="translate(0,0)" fill="rgb(142,64,5)" d="M 1122.82 855.957 C 1131.08 855.827 1135.95 854.839 1142.84 859.189 C 1146.47 867.579 1130.81 869.234 1126.8 870.707 C 1125.92 869.199 1122.25 857.722 1122.82 855.957 z"/>
<path transform="translate(0,0)" fill="rgb(241,188,77)" d="M 1133.77 963.867 C 1136.95 963.184 1140.62 962.792 1143.89 962.348 C 1140.61 973.793 1148.98 983.024 1154 992.33 C 1140.53 988.463 1135.54 976.874 1133.77 963.867 z"/>
<path transform="translate(0,0)" fill="rgb(120,47,6)" d="M 1136.73 949.037 C 1142.7 949.285 1147.88 949.287 1148.78 956.345 C 1147.26 960.005 1147.12 959.813 1143.89 962.348 C 1140.62 962.792 1136.95 963.184 1133.77 963.867 C 1131.74 959.301 1132.48 956.312 1132.79 951.253 L 1136.73 949.037 z"/>
<path transform="translate(0,0)" fill="rgb(241,188,77)" d="M 1132.15 932.983 L 1137.97 932.334 C 1136.14 937.935 1138.5 941.719 1136.73 949.037 L 1132.79 951.253 C 1132.01 944.059 1132 940.258 1132.15 932.983 z"/>
<path transform="translate(0,0)" fill="rgb(245,152,6)" d="M 870.683 912.021 C 871.991 915.326 873.452 918.804 874.511 922.17 L 876.297 928.284 L 873.672 928.373 C 870.626 925.823 868.917 921.214 867.132 917.506 C 868.377 915.74 869.523 913.851 870.683 912.021 z"/>
<path transform="translate(0,0)" fill="rgb(213,20,7)" d="M 1702.61 832.27 C 1723.41 831.074 1735.04 835.113 1746.28 853.68 C 1752.92 844.124 1762.64 835.214 1774.49 833.105 C 1797.58 829 1817.35 835.211 1822.69 860.734 C 1825.13 872.408 1823.68 883.608 1824.28 895.313 C 1826.03 929.37 1821.56 968.588 1828.84 1001.85 L 1829.14 1003.16 C 1813.85 1003.53 1809.27 1004.21 1795.16 998.285 C 1780.11 971.929 1793.17 903.503 1787.43 871.885 C 1785.57 859.677 1781.41 852.404 1767.66 854.992 C 1745.09 859.24 1751.26 908.052 1750.94 925.022 C 1750.58 944.117 1749.79 977.517 1754.11 995.779 C 1754.74 998.753 1755.19 999.273 1754.04 1002.06 C 1753.09 1002.66 1753 1002.8 1751.74 1003.11 C 1745.79 1004.61 1728.76 1003.2 1723.88 999.71 C 1705.64 986.648 1719.04 893.983 1713.38 869.424 C 1712.21 864.346 1709.58 859.074 1704.89 856.417 C 1700.16 853.741 1693.21 854.031 1688.14 855.424 C 1683.31 856.753 1679.6 859.622 1677.47 864.218 C 1673.44 872.935 1675.21 974.735 1676.87 989.098 C 1677.44 994.076 1679.18 998.277 1681.16 1002.81 C 1665.97 1003.67 1656.39 1003.95 1642.83 997.013 C 1631.34 970.006 1640.41 908.847 1638 877.723 C 1636.58 859.406 1642.23 851.969 1630.13 835.229 C 1641.34 833.832 1648.71 832.4 1660.04 833.325 C 1668.51 838.449 1669.22 840.261 1673.96 848.659 C 1682.6 837.397 1689.36 834.65 1702.61 832.27 z"/>
<path transform="translate(0,0)" fill="rgb(213,20,7)" d="M 899.357 632.293 C 909.911 629.389 917.341 629.456 927.216 635.642 C 961.689 657.239 985.743 676.411 1028.48 664.917 C 1054.94 657.799 1063.74 643.651 1082.92 631.459 C 1103.94 636.978 1122.3 658.291 1143.79 671.634 C 1149.2 674.686 1151.22 675.766 1157.13 677.976 C 1152.37 682.356 1140.7 695.236 1137.23 697.396 C 1125.58 709.432 1101.41 721.838 1085.93 729.09 C 1011.21 763.95 931.955 728.021 892.212 659.372 C 884.784 646.541 886.374 638.662 899.357 632.293 z"/>
<path transform="translate(0,0)" fill="rgb(103,9,5)" d="M 1137.23 697.396 C 1125.58 709.432 1101.41 721.838 1085.93 729.09 C 1011.21 763.95 931.955 728.021 892.212 659.372 C 884.784 646.541 886.374 638.662 899.357 632.293 L 900.87 638.883 C 903.408 636.685 902.109 636.931 904.672 636.997 C 904.631 641.898 902.487 644.526 903.001 647.371 C 904.927 644.866 905.425 644.732 907.975 642.959 C 908.431 649.644 917.995 660.456 922.106 665.971 C 938.548 687.23 961.305 701.206 986.324 710.445 C 991.669 712.769 997.233 714.553 1002.93 715.77 C 1049.49 725.86 1073.87 718.544 1113.46 693.49 L 1115.21 694.055 C 1117.42 692.79 1119.61 691.496 1121.79 690.172 L 1122.6 690.724 C 1120.25 696.029 1089.74 710.698 1084.85 716.794 C 1094.95 713.133 1113.03 700.875 1121.99 694.671 C 1128.7 688.405 1139.85 679.356 1143.79 671.634 C 1149.2 674.686 1151.22 675.766 1157.13 677.976 C 1152.37 682.356 1140.7 695.236 1137.23 697.396 z"/>
<path transform="translate(0,0)" fill="rgb(186,36,5)" d="M 903.001 647.371 C 904.927 644.866 905.425 644.732 907.975 642.959 C 908.431 649.644 917.995 660.456 922.106 665.971 C 938.548 687.23 961.305 701.206 986.324 710.445 C 991.669 712.769 997.233 714.553 1002.93 715.77 C 1049.49 725.86 1073.87 718.544 1113.46 693.49 L 1115.21 694.055 C 1117.42 692.79 1119.61 691.496 1121.79 690.172 L 1122.6 690.724 C 1120.25 696.029 1089.74 710.698 1084.85 716.794 C 1065.34 729.41 1019.59 730.978 997.855 724.357 C 959.743 712.746 919.938 684.205 903.001 647.371 z"/>
<path transform="translate(0,0)" fill="rgb(247,169,6)" d="M 1089.14 647.312 C 1096.23 654.691 1109.94 665.706 1118.26 672.94 C 1122.54 675.712 1125.51 677.683 1130.12 679.977 C 1124.39 685.007 1118.87 688.882 1113.46 693.49 C 1073.87 718.544 1049.49 725.86 1002.93 715.77 C 997.233 714.553 991.669 712.769 986.324 710.445 C 961.305 701.206 938.548 687.23 922.106 665.971 C 923.106 666.364 925.81 666.886 925.883 666.915 C 934.838 670.534 942.692 676.158 951.75 680.274 C 961.179 684.623 971.011 688.037 981.106 690.468 C 982.559 690.825 982.002 690.682 983.73 691.336 C 988.18 690.351 998.038 690.691 1003.39 690.942 C 1032.23 692.292 1072.18 684.501 1085.88 655.764 C 1086.87 653.673 1088.09 649.751 1089.14 647.312 z"/>
<path transform="translate(0,0)" fill="url(#Gradient1)" d="M 1118.26 672.94 C 1122.54 675.712 1125.51 677.683 1130.12 679.977 C 1124.39 685.007 1118.87 688.882 1113.46 693.49 C 1073.87 718.544 1049.49 725.86 1002.93 715.77 C 1008.33 711.519 1030.33 713.388 1040.26 712.165 C 1064.43 709.191 1103.46 692.431 1118.26 672.94 z"/>
<path transform="translate(0,0)" fill="rgb(245,152,6)" d="M 922.106 665.971 C 923.106 666.364 925.81 666.886 925.883 666.915 C 934.838 670.534 942.692 676.158 951.75 680.274 C 961.179 684.623 971.011 688.037 981.106 690.468 C 982.559 690.825 982.002 690.682 983.73 691.336 C 975.751 694.044 951.799 682.334 943.847 678.754 C 947.614 682.55 955.087 692.409 956.794 693.789 C 963.828 699.475 979.692 703.485 986.324 710.445 C 961.305 701.206 938.548 687.23 922.106 665.971 z"/>
<path transform="translate(0,0)" fill="rgb(253,204,51)" d="M 907.975 642.959 C 913.675 643.009 920.8 649.241 925.523 652.717 C 968.23 684.151 1014.13 693.014 1061.65 666.195 C 1067.81 662.667 1073.66 658.631 1079.14 654.129 C 1082.22 651.621 1085.51 647.485 1089.14 647.312 C 1088.09 649.751 1086.87 653.673 1085.88 655.764 C 1072.18 684.501 1032.23 692.292 1003.39 690.942 C 998.038 690.691 988.18 690.351 983.73 691.336 C 982.002 690.682 982.559 690.825 981.106 690.468 C 971.011 688.037 961.179 684.623 951.75 680.274 C 942.692 676.158 934.838 670.534 925.883 666.915 C 925.81 666.886 923.106 666.364 922.106 665.971 C 917.995 660.456 908.431 649.644 907.975 642.959 z"/>
<path transform="translate(0,0)" fill="rgb(213,20,7)" d="M 514.228 831.392 C 565.761 825.127 578.816 890.682 541.51 915.2 C 580.544 930.548 560.404 969.745 577.927 1002.31 C 562.053 1004.04 553.288 1004.81 540.042 996.491 C 528.612 972.021 537.353 946.662 523.682 931.684 C 513.823 924.556 501.749 926.233 489.686 926.423 C 490.851 957.996 486.275 971.502 495.533 1003.18 C 480.691 1003.36 473.207 1004.51 459.313 998.986 C 446.086 975.72 454.125 939.543 451.719 913.839 C 447.478 868.548 465.924 836.321 514.228 831.392 z M 488.974 910.149 C 495.697 909.72 503.094 909.096 509.77 909.09 C 527.206 902.534 529.295 891.362 527.718 873.897 C 526.013 855.018 526.251 845.987 504.645 848.284 C 482.296 864.423 491.531 886.772 488.974 910.149 z"/>
<path transform="translate(0,0)" fill="rgb(213,20,7)" d="M 1421.51 831.41 C 1429.71 830.064 1439.93 830.878 1447.97 832.873 C 1457.94 835.346 1468.9 841.453 1473.94 850.772 C 1487.63 876.097 1470.55 975.713 1483.16 995.479 C 1484.42 997.451 1485.19 998.598 1485.6 1000.98 C 1481.4 1006.46 1454.94 1002.48 1449.3 998.784 C 1445.08 996.021 1444.12 983.223 1443.46 978.524 C 1429.14 998.713 1415.67 1005.24 1391.04 1002.98 C 1386.19 1001.17 1381.36 999.33 1376.53 997.457 C 1361.65 980.92 1353.58 960.9 1363.09 939.123 C 1376.24 909.02 1413.02 898.527 1441.29 887.895 C 1444.84 856.993 1433.56 847.673 1402.23 848.51 C 1397.48 848.637 1394.03 849.864 1388.93 849.757 C 1386.06 848.309 1386.3 848.114 1384.68 845.231 C 1384.71 833.301 1412.93 831.974 1421.51 831.41 z M 1405.66 975.647 C 1417.48 982.089 1433.09 980.673 1438.1 967.912 C 1443.5 954.163 1440.77 927.325 1441.25 912.273 L 1439.63 911.061 C 1413.48 922.431 1382.19 944.108 1405.66 975.647 z"/>
<path transform="translate(0,0)" fill="rgb(213,20,7)" d="M 1595.96 832.439 C 1597.13 832.442 1597.21 832.417 1598.58 832.572 C 1604.44 833.233 1610.4 834.867 1613.64 840.201 C 1621.5 853.115 1618.49 930.835 1618.4 950.662 C 1618.35 963.682 1616.98 978.15 1620.71 990.733 C 1621.93 994.85 1625.38 998.767 1627.92 1002.18 C 1614.14 1003.33 1606.64 1003.67 1593.6 999.206 C 1588.35 993.905 1586.57 989.74 1583.75 983.141 L 1582.55 984.403 C 1570.08 997.299 1557.6 1003.15 1539.48 1003.77 C 1523.05 1004.34 1503.38 995.017 1500.92 977.123 C 1497.61 953.103 1499.21 926.025 1499.36 901.5 C 1499.51 882.442 1502.21 851.96 1494.63 835.858 C 1543.8 823.786 1539.14 850.754 1539.01 888.658 L 1538.81 943.365 C 1538.85 953.862 1538.06 969.207 1546.01 977.093 C 1553.21 984.229 1574.99 978.53 1577.6 968.985 C 1580.29 959.167 1579.03 943.115 1578.87 932.392 L 1578.27 869.208 C 1578.15 859.715 1577.71 850.273 1577.62 840.767 C 1577.54 831.161 1588.69 832.761 1595.96 832.439 z"/>
<path transform="translate(0,0)" fill="rgb(213,20,7)" d="M 293.519 832.389 C 299.199 832.136 304.49 833.499 310.05 834.641 C 319.962 847.394 317.136 865.396 316.871 881.009 L 315.836 936.998 C 315.318 962.211 313.348 978.911 322.919 1002.92 C 307.708 1003.23 297.471 1005.19 284.531 996.857 C 275.532 979.612 277.765 944.543 278.228 924.373 C 265.232 925.007 248.352 924.483 235.046 924.419 C 235.024 943.195 234.718 962.997 235.933 981.732 C 236.285 987.163 238.927 991.889 239.558 998.891 C 237.92 1002.15 239.087 1000.89 235.845 1002.75 C 221.471 1003.3 216.118 1004.05 203.198 997.708 C 189.568 971.547 199.22 907.477 196.299 876.614 C 194.521 857.821 199.638 852.599 188.166 834.511 C 212.953 832.045 234.779 829.802 235.26 863.594 C 235.447 876.71 235.477 890.023 234.524 903.157 C 248.902 902.853 264.335 903.157 278.794 903.203 L 278.701 902.363 C 277.975 895.147 276.866 845.054 279.654 836.045 C 280.576 833.064 289.426 832.695 293.519 832.389 z"/>
<path transform="translate(0,0)" fill="rgb(213,20,7)" d="M 378.091 831.396 C 390.34 829.746 405.792 831.985 416.462 838.392 C 437.308 850.594 433.931 881.887 434.473 902.42 C 435.37 936.324 430.794 969.093 439.177 1002.26 C 415.649 1003.55 402.234 1007.22 399.935 979.555 C 386.539 996.575 376.965 1006 353.662 1002.13 C 349.558 1000.87 345.183 999.569 341.569 997.196 C 332.422 991.19 327.57 982.327 325.656 971.722 C 312.633 899.567 390.153 900.323 397.197 885.019 C 399.395 880.244 397.113 870.97 395.707 865.983 C 388.159 839.205 358.058 854.332 342.847 845.677 L 342.463 843.843 C 350.17 834.306 366.667 832.58 378.091 831.396 z M 368.122 977.353 C 371.962 979.481 378.232 981.358 382.489 979.886 C 407.607 971.199 394.212 930.778 398.09 912.426 C 396.713 910.876 397.521 911.177 395.884 911.077 C 382.104 916.942 367.196 925.745 361.112 940.274 C 357.522 948.961 357.581 958.728 361.275 967.372 C 362.815 971.035 365.397 974.475 368.122 977.353 z"/>
<path transform="translate(0,0)" fill="rgb(243,96,2)" d="M 1018.93 409.738 C 1026.58 409.903 1035.94 409.883 1043.32 411.675 C 1049.81 413.255 1047.75 417.21 1053.46 417.115 C 1070.8 405.76 1087.14 411.025 1101.7 424.235 C 1122.22 410.828 1157.62 412.255 1159.66 443.516 C 1161.33 469.222 1150.98 497.948 1152.11 522.52 L 1152.21 524.364 C 1144.3 523.194 1134.38 523.4 1126.99 520.441 C 1115.03 515.658 1132.86 451.111 1125.67 436.77 C 1124.43 434.283 1122.62 432.906 1119.92 432.223 C 1115.84 431.193 1110.61 433.407 1107.35 435.719 C 1104.88 439.264 1105.03 441.442 1104.42 445.888 C 1101.9 469.234 1099.47 494.682 1099.68 518.028 C 1092.08 516.697 1077.01 516.749 1072.07 512.627 C 1068.45 503.174 1073.85 450.286 1073 433.062 L 1072.89 431.083 C 1070.57 430.488 1068.21 429.986 1065.84 429.579 C 1060.26 428.657 1058.13 428.452 1053.61 431.78 C 1049.22 439.5 1048.47 501.149 1049.08 513.607 C 1041.37 513.335 1028.76 513.104 1021.86 510.046 C 1016.89 504.351 1020.39 425.867 1018.93 409.738 z"/>
<path transform="translate(0,0)" fill="rgb(243,96,2)" d="M 1392.84 489.435 C 1409.67 494.582 1423.55 498.028 1439.49 505.992 C 1470.44 521.453 1475.48 553.118 1459.73 581.636 C 1453.68 592.595 1445.43 602.018 1432.83 605.67 C 1405.58 611.855 1378.15 594.841 1354.19 582.564 C 1368.36 559.952 1372.54 546.12 1381.38 520.345 C 1384.07 512.497 1388.98 495.818 1392.84 489.435 z M 1412.64 587.506 C 1429.36 575.649 1438.62 553.68 1440.6 533.774 C 1435.49 523.369 1429.13 517.32 1417.07 516.429 C 1411.43 527.794 1406.76 542.446 1401.7 554.41 C 1398.34 562.362 1392.59 574.024 1390.41 581.846 C 1393.65 587.917 1406.48 588.467 1412.64 587.506 z"/>
<path transform="translate(0,0)" fill="rgb(243,96,2)" d="M 1542.19 561.762 C 1552.02 563.936 1586.55 585.257 1595.46 592.061 C 1628.96 617.616 1623.55 649.452 1578.16 652.288 C 1579.93 671.836 1582.15 689.381 1581.78 708.977 C 1573.84 702.632 1566.07 699.656 1557.64 692.647 C 1546.86 683.785 1549.2 655.231 1549.66 642.346 L 1538.76 636.194 C 1521.33 665.29 1529.42 676.441 1495.99 653.625 C 1498 647.29 1538.67 565.963 1542.19 561.762 z M 1546.55 623.336 C 1557.19 629.016 1560.76 629.874 1573.25 629.196 C 1593.84 624.797 1583.07 596.498 1561.24 594.36 C 1556.53 603.139 1550.53 614.34 1546.55 623.336 z"/>
<path transform="translate(0,0)" fill="rgb(243,96,2)" d="M 1289.02 453.48 C 1311.42 455.867 1316.9 461.144 1323.24 483.348 C 1327.28 497.503 1330.82 511.962 1335.36 525.96 C 1342.55 504.306 1345.31 494.004 1349.96 471.595 C 1359 474.51 1368.46 476.953 1376.61 481.647 C 1374.57 490.068 1369.32 503.66 1366.22 512.246 C 1359.57 531.032 1352.6 549.706 1345.32 568.262 C 1343.8 572.365 1343.55 573.35 1340.26 575.539 C 1336.65 576.015 1336.38 576.072 1332.97 575.013 L 1322.14 571.728 C 1313.74 557.089 1305.89 521.824 1301.04 503.649 C 1297.33 513.744 1288.82 547.637 1281.88 555.112 C 1279.77 557.383 1266.15 552.631 1261.16 551.196 C 1262.49 538.574 1272.48 511.578 1276.59 498.264 C 1281.33 482.916 1284.74 468.81 1289.02 453.48 z"/>
<path transform="translate(0,0)" fill="rgb(243,96,2)" d="M 714.556 453.191 C 716.536 453.028 717.817 452.928 719.743 453.58 C 726.903 456.004 745.921 522.766 749.977 534.091 C 751.909 539.485 754.418 544.665 756.941 549.802 C 751.819 551.875 743.496 555.462 738.229 556.105 C 714.482 559.002 723.294 527.864 712.861 520.212 C 707.421 518.576 692.001 524.702 685.814 526.762 C 688.547 537.37 693.715 547.664 698.099 557.679 C 704.207 571.631 688.901 574.119 679.291 577.024 L 677.023 577.219 C 669.493 573.539 641.854 495.984 631.76 481.172 C 638.55 478.245 648.717 474.346 656.088 474.503 C 675.577 474.918 672.123 500.772 679.098 508.382 C 685.088 510.468 699.79 503.298 707.545 500.784 C 701.583 489.919 696.587 473.016 693.013 460.794 C 700.259 457.027 706.632 454.858 714.556 453.191 z"/>
<path transform="translate(0,0)" fill="rgb(243,96,2)" d="M 932.093 412.385 C 936.113 411.896 941.681 412.066 945.851 412.063 C 954.558 442.069 945.848 483.529 964.898 512.356 C 957.819 513.269 944.791 514.849 938.438 511.871 C 937.774 511.539 930.838 508.358 930.86 508.336 C 917.721 521.978 897.76 528.152 879.357 518.451 C 863.776 510.238 860.027 476.763 856.292 459.212 C 852.916 442.745 855.711 437.026 844.645 424.138 C 857.859 421.206 865.547 418.226 878.756 421.163 C 891.809 440.939 882.884 484.802 900.542 500.594 C 903.007 502.798 906.114 504.299 909.49 503.941 C 914.097 503.452 919.602 499.582 922.113 495.768 C 927.397 487.738 916.835 426.963 913.994 414.939 C 919.426 413.707 926.42 413.066 932.093 412.385 z"/>
<path transform="translate(0,0)" fill="rgb(243,96,2)" d="M 802.497 431.302 C 838.255 427.166 838.815 456.868 844.155 482.474 C 847.287 497.495 851.562 511.794 853.934 527.158 C 848.25 528.684 831.232 533.989 826.585 529.466 C 811.456 514.744 819.48 420.59 779.031 458.267 C 776.75 460.392 779.704 471.574 780.404 474.794 C 784.29 493.358 792.415 521.914 799.842 539.379 C 791.693 541.19 782.102 543.78 773.896 545.054 C 772.097 545.334 770.625 543.819 770.045 542.487 C 758.369 515.673 755.238 483.157 743.579 455.975 C 742.602 453.696 738.51 449.604 736.637 447.723 C 744.584 444.566 752.545 441.943 760.956 443.35 C 762.522 443.389 770.163 444.64 771.342 443.981 C 784.162 436.82 787.484 433.561 802.497 431.302 z"/>
<path transform="translate(0,0)" fill="rgb(213,20,7)" d="M 591.041 832.392 C 601.178 831.827 618.23 832.049 619.877 844.725 C 625.474 887.794 620.311 933.462 622.728 977.098 C 623.054 982.995 628.207 999.005 626.419 1002 C 622.969 1003.61 618.747 1003.14 614.83 1003.12 C 605.851 1002.92 602.044 1001.75 593.984 998.759 C 580.899 984.835 584.755 964.315 583.674 947.062 C 581.832 917.663 586.825 880.096 582.567 851.449 L 582.277 849.593 C 581.325 843.326 578.962 839.514 576.064 833.894 C 580.784 833.235 586.239 832.851 591.041 832.392 z"/>
<path transform="translate(0,0)" fill="rgb(243,96,2)" d="M 485.612 556.014 C 488.931 556.401 487.413 555.846 490.23 557.987 C 495.039 573.043 498.891 596.493 503.265 612.64 C 507.051 626.62 515.296 651.774 516.146 664.649 C 511.685 674.048 500.298 679.747 491.417 685.413 C 477.528 679.539 429.552 640.207 414.004 628.29 C 406.683 621.655 403.738 619.924 395.355 615.296 C 406.746 603.423 411.77 599.418 427.303 594.854 C 441.59 602.057 474.819 635.735 490.274 647.854 C 487.414 640.555 485.816 632.268 483.389 624.756 C 477.379 606.161 471.925 586.992 463.231 569.475 C 470.389 564.503 477.865 560.006 485.612 556.014 z"/>
<path transform="translate(0,0)" fill="rgb(243,96,2)" d="M 1205.84 429.638 C 1214.93 432.217 1238.42 433.845 1242.35 440.983 C 1247.15 449.683 1247.37 480.372 1248.45 490.645 C 1250.39 509.055 1251.95 525.187 1253.25 543.487 C 1253.43 546.119 1253.03 545.953 1251.49 547.451 C 1245.2 547.33 1231.34 543.093 1224.89 541.339 C 1220.5 530.074 1222.22 526.914 1220.51 516.009 L 1220.37 515.199 C 1212.08 512.808 1199.97 510.42 1191.23 508.241 C 1187.76 515.517 1184.43 522.969 1180.07 529.736 C 1173.12 527.589 1162.54 527.387 1158.95 522.397 C 1160.56 512.763 1183.99 474.137 1190 463.509 C 1194.28 455.933 1202.7 445.85 1203.88 437.274 C 1204.36 433.817 1204.7 432.828 1205.84 429.638 z M 1209.46 494.69 L 1220.39 497.519 C 1219.69 492.463 1218.24 465.092 1216.11 462.866 C 1215.97 462.72 1215.78 462.628 1215.62 462.508 C 1210.07 471.165 1201.42 481.287 1201.18 490.735 C 1203.31 494.565 1205.21 494.086 1209.46 494.69 z"/>
<path transform="translate(0,0)" fill="rgb(243,96,2)" d="M 601.265 496.253 C 602.304 496.176 603.344 496.106 604.384 496.045 C 612.606 495.578 614.358 496.028 620.888 501.872 C 625.104 505.646 633.952 517.943 625.776 522.203 C 620.423 524.991 612.506 520.216 607.521 517.759 C 598.449 518.68 586.703 520.94 581.423 529.177 C 577.959 545.405 609.911 538.91 620.652 539.458 C 647.469 540.829 662.282 558.709 649.974 584.832 C 643.72 598.104 622.96 607.448 608.239 611.706 C 603.087 613.149 598.404 614.689 592.977 613.427 C 585.842 611.769 577.072 600.807 579.561 593.649 C 584.225 590.395 595.114 591.806 601.068 591.374 C 624.995 589.707 635.285 562.124 602.392 566.346 C 571.054 570.369 554.846 566.486 550.088 533.069 C 560.23 510.095 577.045 500.376 601.265 496.253 z"/>
<path transform="translate(0,0)" fill="rgb(37,93,129)" d="M 538.413 1184.96 C 562.087 1187.64 590.957 1179.28 591.483 1215.89 C 591.72 1232.36 594.991 1268.42 584.01 1281 C 572.591 1290.01 552.841 1288.16 538.323 1288.44 C 538.193 1254.22 537.949 1219.14 538.413 1184.96 z M 553.653 1278.29 C 561.03 1277.79 566.261 1277.95 572.759 1274.26 C 579.354 1259.11 577.89 1220.59 574.441 1203.56 C 572.997 1196.42 559.092 1196.52 553.218 1196.04 C 554.1 1217.13 554.522 1257.03 553.653 1278.29 z"/>
<path transform="translate(0,0)" fill="rgb(37,93,129)" d="M 1360.77 1184.67 C 1372.17 1187.08 1384.34 1184.37 1395.87 1187.97 C 1415.17 1193.99 1414.37 1211.28 1408.57 1227.31 C 1405.82 1229.38 1403.77 1230.54 1402.02 1233.51 L 1402.81 1235.44 C 1406.7 1237.87 1408.04 1239.06 1411.46 1242.15 C 1415.44 1255.17 1415.84 1262.96 1411.31 1275.65 C 1401.68 1292.19 1377.73 1287.97 1360.6 1288.56 C 1362.03 1257.32 1360.7 1216.76 1360.77 1184.67 z M 1375.68 1278.29 C 1383.93 1277.63 1389.72 1278.02 1396.79 1273.99 C 1406.21 1251.2 1399.88 1240.08 1375.45 1239 L 1375.68 1278.29 z M 1375.06 1229.04 C 1379.46 1228.62 1388.71 1227.93 1392.69 1227.02 C 1400.18 1219.64 1403.38 1208.53 1394.58 1201.17 C 1388.8 1196.34 1382.88 1196.67 1375.81 1196.01 C 1374.47 1201.35 1375.79 1220.69 1375.06 1229.04 z"/>
<path transform="translate(0,0)" fill="rgb(247,169,6)" d="M 969.16 608.709 C 977.099 600.783 984.527 592.956 993.528 586.19 C 1019.22 566.878 1035.89 594.465 1052.65 609.736 C 1055.69 612.534 1056.36 612.811 1057.72 616.537 C 1057.23 625.262 1037.34 641.666 1030.64 648.572 C 1007.72 672.176 985.764 648.942 971.313 631.444 C 970.198 630.081 969.139 628.673 968.141 627.223 C 966.844 626.164 962.116 619.966 960.776 618.279 C 963.551 615.072 966.346 611.882 969.16 608.709 z"/>
<path transform="translate(0,0)" fill="rgb(122,15,6)" d="M 969.16 608.709 C 970.905 614.352 972.144 615.229 977.495 617.453 C 982.455 623.226 993.862 636.425 999.727 640.312 L 1000.97 642.49 C 1002.58 643.453 1006.87 647.236 1008.49 648.593 C 1017.47 641.373 1038.66 621.484 1047.78 616.316 C 1049.9 614.498 1051.14 612.123 1052.65 609.736 C 1055.69 612.534 1056.36 612.811 1057.72 616.537 C 1057.23 625.262 1037.34 641.666 1030.64 648.572 C 1007.72 672.176 985.764 648.942 971.313 631.444 C 970.198 630.081 969.139 628.673 968.141 627.223 C 966.844 626.164 962.116 619.966 960.776 618.279 C 963.551 615.072 966.346 611.882 969.16 608.709 z"/>
<path transform="translate(0,0)" fill="rgb(103,9,5)" d="M 969.16 608.709 C 970.905 614.352 972.144 615.229 977.495 617.453 C 982.455 623.226 993.862 636.425 999.727 640.312 L 1000.97 642.49 L 1000.66 644.193 L 1004.41 649.124 C 998.633 650.628 978.799 628.212 968.141 627.223 C 966.844 626.164 962.116 619.966 960.776 618.279 C 963.551 615.072 966.346 611.882 969.16 608.709 z"/>
<path transform="translate(0,0)" fill="rgb(213,20,7)" d="M 969.16 608.709 C 977.099 600.783 984.527 592.956 993.528 586.19 C 1019.22 566.878 1035.89 594.465 1052.65 609.736 C 1051.14 612.123 1049.9 614.498 1047.78 616.316 C 1036.82 608.055 1024.43 589.405 1013.28 588.559 C 1005.71 587.985 995.526 599.83 990.005 605.361 C 985.045 609.303 981.447 612.394 977.495 617.453 C 972.144 615.229 970.905 614.352 969.16 608.709 z"/>
<path transform="translate(0,0)" fill="rgb(253,204,51)" d="M 990.005 605.361 C 995.526 599.83 1005.71 587.985 1013.28 588.559 C 1024.43 589.405 1036.82 608.055 1047.78 616.316 C 1038.66 621.484 1017.47 641.373 1008.49 648.593 C 1006.87 647.236 1002.58 643.453 1000.97 642.49 L 999.727 640.312 L 1000.77 637.829 L 1003.96 637.099 L 1006.53 637.994 C 1013.87 635.816 1028.59 620.499 1034.07 614.976 C 1025.92 606.995 1021.08 599.746 1010.99 594.319 C 1004.57 598.413 997.114 604.745 991.049 609.61 C 988.375 609.841 987.703 611.509 985.209 613.982 L 983.553 613.585 C 987.273 610.463 988.541 609.96 990.005 605.361 z"/>
<path transform="translate(0,0)" fill="rgb(245,152,6)" d="M 990.005 605.361 C 988.541 609.96 987.273 610.463 983.553 613.585 L 985.209 613.982 C 987.703 611.509 988.375 609.841 991.049 609.61 C 989.649 611.587 988.223 613.546 986.773 615.487 C 990.618 622.485 999.986 629.968 1003.96 637.099 L 1000.77 637.829 L 999.727 640.312 C 993.862 636.425 982.455 623.226 977.495 617.453 C 981.447 612.394 985.045 609.303 990.005 605.361 z"/>
<path transform="translate(0,0)" fill="rgb(37,93,129)" d="M 1635.94 1230.06 C 1635.48 1241.26 1637.85 1282.01 1631.52 1288.41 C 1629.94 1290.02 1629.08 1289.73 1627.05 1289.54 C 1623.86 1286.78 1622.09 1282.56 1622.52 1278.87 C 1624.05 1265.68 1621.58 1192.62 1625.99 1186.17 C 1630.04 1184.6 1637.9 1184.57 1639.41 1189.76 C 1646.94 1215.54 1649.66 1243.94 1657 1269.68 C 1658.93 1258.4 1670.99 1189.91 1676.49 1186.01 C 1678.88 1184.31 1684.46 1185.26 1687.2 1185.99 C 1688.54 1188.22 1689.4 1192.15 1689.31 1194.77 C 1688.22 1224.08 1691.86 1257.39 1690.36 1286.29 C 1687.59 1289.87 1684.14 1290.14 1680.53 1287.7 C 1676.61 1280.66 1678.11 1248.51 1677.95 1238.23 L 1678.34 1217.27 C 1676.33 1222.28 1675.49 1224.32 1674.33 1229.69 C 1671.93 1239.73 1664.62 1287.47 1655.53 1288.19 C 1648.28 1283.03 1641.52 1239.98 1639.26 1229 C 1638.64 1226.18 1638.49 1223.98 1636.64 1221.84 C 1635.17 1224.07 1635.8 1227.17 1635.94 1230.06 z"/>
<path transform="translate(0,0)" fill="rgb(37,93,129)" d="M 1277.08 1184.59 C 1281.69 1185.05 1286.81 1185.43 1291.37 1186.02 C 1298.57 1211.02 1302.41 1245.08 1310.46 1267.86 C 1314.48 1242.63 1320.24 1216.67 1326.13 1191.76 C 1328.17 1183.12 1334.1 1184.81 1341.71 1185.06 C 1342.17 1194.69 1344.27 1284.34 1342.74 1287.36 C 1338.99 1288.29 1338 1288.14 1334.06 1288.07 C 1332.24 1286.84 1331.85 1287.08 1331.56 1284.03 C 1330.24 1270.19 1331.68 1256.77 1330.87 1242.59 C 1331.06 1235.75 1331.51 1227.77 1330.36 1221.11 L 1329.23 1221.63 L 1328.49 1225.75 L 1328.18 1226.73 C 1325.51 1235.58 1317.17 1292.39 1307.21 1288.99 C 1302.15 1282.17 1295.49 1244.54 1293.02 1233.49 C 1292.4 1229.79 1291.86 1224.24 1289.95 1221.31 C 1288.51 1224.32 1288.77 1227.22 1288.66 1230.61 C 1288.18 1242.89 1288.84 1278.33 1287.4 1286.91 C 1283.57 1288.27 1281.84 1287.86 1277.66 1287.67 C 1273.2 1283.65 1275.91 1252.38 1276.12 1245.19 C 1276.57 1224.99 1276.89 1204.79 1277.08 1184.59 z"/>
<path transform="translate(0,0)" fill="rgb(21,6,3)" d="M 315.458 1304.95 C 322.989 1305.64 337.431 1304.76 345.553 1304.69 L 412.313 1304.17 L 606.455 1304.01 L 1226.46 1304.09 C 1228.18 1306.23 1228.5 1305.85 1228.84 1307.95 C 1199.81 1309.38 1164.25 1308.51 1134.56 1308.6 L 939.002 1308.15 L 333.589 1307.22 C 328.337 1307.21 316.673 1307.53 312.139 1306.45 L 315.458 1304.95 z"/>
<path transform="translate(0,0)" fill="rgb(16,14,9)" d="M 1206.62 1339.17 C 1240.82 1336.48 1235.68 1366.23 1235.79 1391.07 C 1235.86 1408.28 1236 1423.39 1216.92 1428.75 C 1183.34 1430.2 1187.09 1407.99 1186.87 1381.91 C 1186.72 1362.56 1184.93 1344.39 1206.62 1339.17 z M 1217.55 1418.9 C 1225.38 1410.69 1225.67 1357.41 1218.78 1350.62 C 1214.19 1348.37 1210.66 1348.58 1205.53 1349.03 C 1196.15 1359.2 1200.33 1388.53 1199.79 1402.35 C 1199.2 1417.15 1204.69 1419.89 1217.55 1418.9 z"/>
<path transform="translate(0,0)" fill="rgb(243,96,2)" d="M 520.847 535.9 C 530.394 535.539 536.358 553.191 540.907 560.149 C 553.263 579.051 565.238 609.453 580.521 625.366 C 573.051 630.121 562.455 635.683 554.549 640.142 C 544.382 635.117 514.489 573.826 504.973 561.13 C 501.736 556.81 498.784 553.964 494.876 550.116 C 503.667 544.377 511.177 539.931 520.847 535.9 z"/>
<path transform="translate(0,0)" fill="rgb(37,93,129)" d="M 648.132 1184.94 C 653.099 1184.98 658.133 1185.34 663.1 1185.61 C 662.489 1208.79 663.292 1232.92 663.003 1256.15 C 662.913 1263.34 663.864 1281.76 662.735 1287.32 C 659.686 1289.01 656.335 1288.5 652.751 1288.41 C 651.322 1288.4 650.755 1288.06 649.317 1287.63 C 646.938 1282.54 648.226 1248.2 648.355 1240.29 C 641.203 1240.82 629.345 1240.33 621.851 1240.25 C 623.074 1256.56 621.785 1272.58 623.147 1288.3 L 607.551 1288.31 C 607.763 1275.66 606.145 1190.12 608.851 1185.26 C 613.321 1185.23 618.078 1185.43 622.572 1185.53 C 622.679 1199.33 623.225 1216.65 621.961 1230.06 C 630.921 1229.95 639.882 1229.99 648.841 1230.16 C 647.647 1216.72 648.112 1198.82 648.132 1184.94 z"/>
<path transform="translate(0,0)" fill="rgb(243,96,2)" d="M 1498 537.43 C 1508.18 541.716 1517.18 546.905 1527.81 551.242 C 1520.11 567.871 1509.26 585.89 1500.81 602.559 C 1496.55 610.955 1485.03 635.808 1480.55 641.557 C 1474.54 643.275 1458.65 633.285 1454.31 628.832 C 1453.19 624.03 1469.95 595.544 1473.3 589.162 C 1482.08 572.187 1490.32 554.934 1498 537.43 z"/>
<path transform="translate(0,0)" fill="rgb(37,93,129)" d="M 1028.83 1234.15 C 1035.2 1222.66 1045.94 1194.71 1053.47 1186.28 C 1056.83 1184.54 1062.16 1184.77 1066.15 1184.6 C 1061.86 1197.42 1051.93 1217.87 1046.06 1230.74 C 1051.17 1244.93 1058.11 1260.33 1064.09 1274.33 C 1065.75 1279.23 1068.32 1284.34 1070.52 1289.07 C 1065.71 1288.96 1060.08 1288.34 1055.22 1287.92 C 1048.67 1275.02 1040.49 1253.08 1034.68 1239.06 C 1027.8 1257.67 1029.35 1268.99 1030.01 1288.88 C 1024.11 1288.99 1020.5 1288.67 1014.66 1288.13 C 1013.66 1273.5 1012.72 1195.87 1015.04 1185.06 L 1029.47 1185.17 C 1029.54 1202.4 1029.76 1216.89 1028.83 1234.15 z"/>
<path transform="translate(0,0)" fill="rgb(37,93,129)" d="M 1532.2 1185.57 L 1545.88 1184.54 C 1538.79 1199.61 1531.93 1215.57 1525.12 1230.82 C 1530.08 1245.13 1538.2 1262.79 1544.07 1277.41 L 1549.32 1288.76 C 1544.49 1288.8 1538.87 1288.32 1533.98 1288.03 C 1527.16 1273.63 1520.21 1254.6 1513.93 1239.39 C 1507.01 1257.7 1507.71 1268.8 1508.95 1288.52 L 1493.27 1288.84 C 1493.77 1281.75 1493.34 1274.54 1493.39 1267.43 C 1493.61 1240 1492.61 1212.31 1493.38 1184.91 L 1508.41 1185.23 C 1508.57 1200.14 1507.66 1219.34 1509.49 1233.59 C 1514.43 1219.68 1524.41 1198.31 1532.2 1185.57 z"/>
<path transform="translate(0,0)" fill="rgb(37,93,129)" d="M 467.161 1185 C 471.477 1184.95 474.979 1184.56 479.061 1185.87 C 486.68 1197.93 475.084 1255.49 483.916 1271.97 C 485.421 1274.78 487.794 1276.94 490.973 1277.64 C 494.297 1278.38 498.156 1277.97 500.921 1275.85 C 514.436 1265.5 503.049 1208.44 507.576 1190.63 C 508.365 1187.53 509.543 1186.5 512.247 1184.95 C 515.357 1184.81 517.48 1184.33 520.122 1185.85 C 522.027 1189.54 521.592 1194.4 521.666 1198.75 C 521.547 1215.93 521.92 1233.39 521.678 1250.52 C 521.364 1272.79 517.816 1291.36 490.474 1289.25 C 475.506 1288.09 469.053 1278.6 467.484 1264.24 C 465.835 1249.15 466.636 1233.77 466.397 1218.61 C 466.526 1208.24 465.836 1195.11 467.161 1185 z"/>
<path transform="translate(0,0)" fill="rgb(37,93,129)" d="M 1078.99 1184.98 L 1092.76 1185.17 C 1093.3 1200.22 1089.99 1265.83 1096.98 1274.03 C 1099.18 1276.61 1102.58 1277.96 1105.92 1278.19 C 1108.72 1278.39 1111.18 1277.39 1113.16 1275.45 C 1116.08 1272.6 1117.59 1268.32 1118.39 1264.39 C 1120.29 1254.96 1119.52 1244.51 1119.5 1234.93 C 1119.45 1218.35 1119.15 1201.75 1119.59 1185.18 L 1133.86 1185.3 L 1133.82 1200.25 C 1133.5 1220.71 1138.1 1278.44 1122.96 1284.8 C 1065.34 1309.04 1080.87 1236.79 1078.47 1206.12 C 1077.61 1195.16 1078.07 1190.22 1078.99 1184.98 z"/>
<path transform="translate(0,0)" fill="rgb(37,93,129)" d="M 862.339 1185.08 C 866.7 1185 869.595 1184.56 873.628 1186.22 C 877.101 1189.63 894.879 1277.74 897.147 1289.27 C 892.468 1289.05 887.919 1288.52 883.264 1288.03 C 881.667 1282.53 879.68 1264.45 875.905 1262.24 C 868.966 1262.44 864.592 1262.24 857.647 1261.71 C 857.044 1266.54 856.506 1271.66 855.786 1276.46 C 853.875 1289.21 850.021 1289.06 839.207 1288.28 C 840.926 1276.64 858.24 1192.74 862.339 1185.08 z M 871.245 1252.01 L 874.378 1251.94 C 876.365 1248.67 870.332 1213.38 867.311 1210.72 C 866.197 1215.49 860.395 1247.8 860.702 1251.45 C 865.015 1252.54 866.703 1252.22 871.245 1252.01 z"/>
<path transform="translate(0,0)" fill="rgb(37,93,129)" d="M 1576.45 1185.05 C 1578.72 1185.01 1585.17 1184.67 1586.49 1185.71 C 1591.72 1189.86 1593.48 1207.64 1595.04 1213.39 C 1601.35 1236.63 1603.8 1266.34 1612.17 1288.45 C 1607.19 1288.6 1601.71 1288.26 1596.7 1288.07 C 1594.81 1281.21 1593.48 1266.99 1591.41 1262.76 L 1589.25 1262.2 C 1583.44 1262.28 1577.58 1262.06 1571.77 1261.92 C 1570.62 1270.31 1568.78 1278.95 1567.51 1287.51 C 1562.53 1288.06 1557.55 1288.67 1552.58 1289.35 C 1556.62 1272.25 1571.35 1194.26 1576.45 1185.05 z M 1584.25 1252 C 1587.68 1251.85 1587.77 1252.46 1589.91 1250.71 C 1588.87 1244.71 1583.95 1214.09 1582.2 1210.66 C 1580.17 1217.31 1574.84 1244.31 1574.22 1251.3 C 1577.31 1252.44 1580.89 1252.07 1584.25 1252 z"/>
<path transform="translate(0,0)" fill="rgb(37,93,129)" d="M 698.412 1185.1 C 702.763 1185.02 705.603 1184.59 709.636 1186.24 C 712.994 1189.8 730.866 1277.77 733.275 1289.14 L 718.979 1287.9 C 718.004 1283.09 715.026 1265.24 712.726 1262.2 C 705.48 1262.44 701.038 1262.24 693.782 1261.7 C 692.52 1271.21 690.918 1279.06 688.968 1288.4 C 683.89 1288.49 681.5 1288.75 676.483 1287.63 L 675.929 1286.46 C 677.54 1273.14 693.706 1194.98 698.412 1185.1 z M 695.613 1252.54 C 701.353 1252.04 706.982 1252.2 712.742 1252.23 C 709.49 1240.74 707.682 1228.46 705.65 1216.66 C 705.326 1212.79 706.122 1214 704.267 1211.41 C 701.899 1214.54 701.235 1221.2 700.655 1225.17 C 699.195 1234.85 698.045 1243 695.613 1252.54 z"/>
<path transform="translate(0,0)" fill="rgb(37,93,129)" fill-opacity="0.027451" d="M 700.655 1225.17 C 701.235 1221.2 701.899 1214.54 704.267 1211.41 C 706.122 1214 705.326 1212.79 705.65 1216.66 C 705.328 1220.19 705.273 1221.83 704.272 1225.3 C 701.801 1225.9 702.981 1226.08 700.655 1225.17 z"/>
<path transform="translate(0,0)" fill="rgb(37,93,129)" d="M 359.431 1184.99 C 361.482 1184.99 370.855 1184.94 371.647 1187.2 C 382.086 1217 383.96 1260.1 395.004 1288.71 C 369.779 1289.16 381.708 1279.55 374.453 1261.97 C 367.062 1262.5 361.998 1262.25 354.557 1261.91 C 353.792 1269.12 353.289 1282.56 347.623 1287.76 C 346.197 1289.06 336.864 1288.69 337.396 1286.35 C 343.313 1260.26 348.819 1207.96 359.431 1184.99 z M 367.249 1252.01 L 371.516 1251.88 L 372.78 1250.43 C 371.983 1245.93 366.828 1212.18 365.586 1210.82 C 363.088 1217.11 357.576 1244.73 357.336 1251.51 C 361.433 1252.41 362.976 1252.17 367.249 1252.01 z"/>
<path transform="translate(0,0)" fill="rgb(37,93,129)" d="M 1447.42 1185.02 C 1449.43 1185.02 1458.8 1184.79 1459.65 1187.2 C 1470.11 1216.91 1471.91 1259.79 1482.85 1288.38 C 1453.92 1290.09 1472.48 1273.49 1461.77 1262.12 C 1455.11 1262.52 1449.18 1262.18 1442.53 1261.91 C 1441.64 1269.71 1441.51 1283.73 1434.54 1288.13 C 1433.2 1288.17 1424.87 1288.72 1425.41 1286.32 C 1431.23 1260.63 1437.01 1207.58 1447.42 1185.02 z M 1455.25 1252.01 L 1459.52 1251.88 L 1460.79 1250.44 C 1459.9 1245.29 1454.83 1212.19 1453.6 1210.83 C 1451.12 1216.95 1445.56 1244.92 1445.31 1251.52 C 1449.42 1252.4 1450.97 1252.16 1455.25 1252.01 z"/>
<path transform="translate(0,0)" fill="rgb(37,93,129)" d="M 1244.16 1184.82 C 1248.53 1184.87 1253.04 1184.44 1256.9 1186.16 C 1259.35 1189.34 1258.65 1188.01 1258.69 1192.75 C 1258.98 1213.11 1259.04 1233.54 1258.83 1253.95 C 1258.43 1272.33 1253.83 1288.32 1232.75 1289.58 C 1198.76 1291.61 1204.14 1253.72 1203.71 1230.96 C 1203.43 1215.9 1203.79 1200.32 1203.75 1185.13 L 1217.87 1185.31 C 1218.47 1209.87 1217.52 1234.57 1218.37 1259.25 C 1219.29 1286.15 1242.35 1282.22 1243.8 1262.28 C 1245.6 1237.45 1245 1209.84 1244.16 1184.82 z"/>
<path transform="translate(0,0)" fill="rgb(37,93,129)" d="M 421.499 1185.2 C 443.622 1184.1 448.924 1191.81 454.011 1211.8 C 449.105 1212.93 445.591 1214.29 440.916 1216.01 C 439.715 1210.49 438.278 1202.52 434.583 1198.42 C 429.498 1195.93 421.358 1195.18 418.034 1201 C 410.658 1213.09 427.393 1226.24 436.243 1233.04 C 457.95 1249.7 466.269 1283.47 430.89 1289.63 C 422.022 1288.94 413.918 1287.34 408.707 1279.34 C 405.699 1274.72 401.76 1265.86 402.811 1260.3 C 405.085 1257.78 405.603 1256.75 408.89 1255.85 C 418.181 1258.24 417.851 1271 424.751 1276.86 C 429.186 1280.63 438.877 1275.35 441.245 1271.07 C 443.62 1266.34 439.943 1259.41 437.163 1255.62 C 423.747 1237.37 393.03 1224.55 405.166 1196.65 C 408.044 1190.03 414.878 1187.04 421.499 1185.2 z"/>
<path transform="translate(0,0)" fill="rgb(37,93,129)" d="M 805.072 1251.8 C 806.679 1242.2 815.619 1193.72 818.783 1187.8 C 822.282 1185.03 827.882 1183.15 831.356 1186.78 C 829.415 1206.51 821.478 1229.71 818.243 1249.68 C 816.409 1261 812.522 1276.13 809.017 1286.84 C 806.975 1293.08 793.967 1288.26 794.259 1280.55 C 792.274 1270.7 790.188 1260.61 788.097 1250.98 L 773.18 1184.98 C 777.797 1185.18 782.754 1185.7 787.39 1186.1 C 791.569 1202.69 796.258 1233.1 800.821 1246.85 C 801.002 1249.92 800.888 1254.84 802.379 1257.19 C 804.378 1255.49 804.34 1254.39 805.072 1251.8 z"/>
<path transform="translate(0,0)" fill="rgb(37,93,129)" d="M 316.23 1185.09 L 329.256 1184.98 C 327.174 1193.93 325.31 1202.92 323.665 1211.96 C 319.852 1226.13 310.719 1277.16 306.178 1285.87 C 304.664 1287.19 303.496 1288.1 301.511 1288.49 C 298.932 1289.01 296.632 1288.78 294.516 1287.1 C 290.86 1284.21 272.194 1195.92 271.252 1185.16 L 283.612 1185.17 C 288.756 1199.46 297.37 1245.77 300.958 1262.77 C 303.172 1245.66 311.109 1201.03 316.23 1185.09 z"/>
<path transform="translate(0,0)" fill="rgb(16,14,9)" d="M 1051.5 1338.86 L 1056.52 1340.09 C 1059.62 1343.97 1058.21 1418.59 1058.39 1428.93 C 1044.26 1426.23 1037.01 1429.89 1026.63 1426.39 C 1018.87 1417 1019.45 1387.31 1022.53 1375.66 C 1026.3 1361.35 1036.16 1363.76 1047.16 1367.48 C 1046.83 1360.05 1046.2 1350.85 1047.15 1343.45 C 1047.56 1340.24 1048.89 1340.28 1051.5 1338.86 z M 1044.8 1419.24 C 1048.97 1412.53 1046.62 1386.4 1046.27 1377.48 C 1046.11 1373.41 1039.02 1373.64 1036.16 1373.56 C 1031.38 1382.06 1030.07 1410.32 1035.4 1418.37 C 1038.8 1419.86 1041.09 1419.4 1044.8 1419.24 z"/>
<path transform="translate(0,0)" fill="rgb(16,14,9)" d="M 596.1 1338.95 L 599.947 1339.95 C 604.002 1344.27 602.183 1370.62 601.98 1377.97 C 609.654 1377.88 617.443 1378.19 625.125 1378.42 C 624.817 1365.88 625.009 1352.49 624.946 1339.86 L 637.403 1339.46 C 636.611 1352.82 638.505 1419.8 636.2 1426.91 C 633.658 1428.78 630.456 1428.19 627.077 1428.15 C 623.395 1425 624.931 1392.85 624.976 1386.77 C 616.99 1386.76 609.89 1386.79 601.942 1386.16 C 602.417 1399.07 602.282 1412.75 601.782 1425.62 C 601.631 1429.51 594.057 1428.18 591.695 1427.31 C 588.635 1423.17 589.883 1351.06 590.29 1341.79 C 592.274 1339.38 592.462 1339.99 596.1 1338.95 z"/>
<path transform="translate(0,0)" fill="rgb(16,14,9)" d="M 373.325 1338.87 C 378.527 1339.59 377.917 1338.7 381.303 1341.56 C 383.95 1347.72 400.111 1424.08 399.476 1427.16 C 395.838 1428.87 395.983 1429.02 392.089 1428.8 C 382.582 1422.25 391.238 1406.52 380.248 1405.98 L 366.851 1405.46 C 365.641 1413.53 365.539 1431.83 352.835 1427.37 C 350.337 1420.05 366.865 1356.56 369.077 1344.13 C 369.549 1341.48 371.387 1340.39 373.325 1338.87 z M 368.208 1396.89 L 383.741 1397.09 L 377.822 1369.67 C 377.831 1366.48 377.42 1364.23 375.544 1361.71 C 373.527 1363.7 374.416 1362.66 374.149 1366.75 C 372.294 1376.77 370.536 1386.98 368.208 1396.89 z"/>
<path transform="translate(0,0)" fill="rgb(16,14,9)" fill-opacity="0.0392157" d="M 374.149 1366.75 C 374.416 1362.66 373.527 1363.7 375.544 1361.71 C 377.42 1364.23 377.831 1366.48 377.822 1369.67 L 376.732 1374.73 L 375.792 1374.79 L 374.149 1366.75 z"/>
<path transform="translate(0,0)" fill="rgb(16,14,9)" d="M 898.182 1339.28 C 901.662 1339.27 903.628 1338.88 906.552 1340.72 C 907.788 1347.24 907.602 1373.86 907.161 1381.39 C 913.409 1370.37 920.524 1349.77 927.881 1341.1 C 931.2 1339.41 931.337 1339.65 934.955 1339.74 L 936.24 1341.39 C 936.496 1348.51 925.161 1370.93 921.564 1378.8 C 927.053 1391.98 932.422 1405.21 937.67 1418.49 L 940.278 1424.47 C 939.478 1427.74 940.307 1426.36 937.448 1428.56 C 935.86 1428.73 933.815 1429.01 932.434 1428.18 C 925.131 1423.78 916.336 1394.54 913.428 1386.12 C 902.774 1402.24 911.977 1421.06 902.439 1428.25 C 899.216 1428.63 899.212 1428.91 896.322 1427.63 C 892.848 1421.38 895.803 1364.48 894.798 1353.59 C 894.366 1348.9 894.239 1342.42 898.182 1339.28 z"/>
<path transform="translate(0,0)" fill="rgb(16,14,9)" fill-opacity="0.988235" d="M 1507.61 1364.28 C 1508.03 1364.34 1511.07 1364.69 1511.59 1364.87 C 1522.35 1368.53 1519.35 1389.66 1519.66 1399.15 C 1519.94 1407.87 1519.79 1420.42 1516.63 1428.29 C 1513.31 1428.46 1514.91 1428.73 1511.71 1427.1 C 1503.26 1415.62 1515.76 1380.62 1504.92 1371.96 C 1481.49 1368.96 1501.81 1418.92 1489.43 1428.16 C 1485.63 1428.19 1487.25 1428.72 1484.27 1427.07 C 1482.71 1422.43 1483.22 1412.53 1483.25 1407.21 C 1483.25 1397.97 1486.07 1377.36 1478.39 1371.92 C 1455.91 1371.63 1475.76 1417.45 1464.63 1427.41 C 1461.65 1428.33 1461.87 1428.34 1458.82 1427.74 C 1455.86 1423.19 1456.19 1369.15 1459.03 1364.88 C 1463.01 1364.12 1467.81 1367.8 1469.87 1367.47 C 1477.6 1366.24 1479.35 1363.09 1487.86 1365.1 C 1488.38 1365.57 1493.23 1369.83 1493.6 1369.62 C 1498.5 1366.91 1501.97 1365.15 1507.61 1364.28 z"/>
<path transform="translate(0,0)" fill="rgb(16,14,9)" d="M 724.623 1364.33 C 727.371 1364.62 729.449 1364.72 731.395 1366.82 C 736.075 1371.86 742.915 1364.46 749.336 1364.07 C 757.126 1362.55 761.811 1373.83 761.499 1379.98 C 761.043 1388.96 763.352 1423 758.53 1428.71 C 755.234 1429.15 756.772 1429.45 753.809 1427.58 C 746.426 1416.5 756.385 1380.37 747.467 1372.02 C 729.486 1370.56 735.54 1410.33 735.383 1423.91 L 734.951 1426.46 C 732.885 1428.48 732.674 1428.2 729.739 1428.76 C 717.384 1423.15 734.358 1369.63 717.472 1371.82 C 701.241 1373.93 714.165 1416.89 708.021 1427.34 C 704.739 1428.73 702.49 1428.47 699.677 1426.39 C 698.513 1418.55 698.847 1375.03 699.997 1365.88 C 705.5 1361.47 707.037 1369.85 714.84 1366.45 C 716.182 1365.87 722.786 1364.66 724.623 1364.33 z"/>
<path transform="translate(0,0)" fill="rgb(16,14,9)" d="M 499.326 1364.29 C 520.927 1364.97 521.132 1379.16 521.156 1397.41 C 521.174 1410.83 520.403 1425.13 505.625 1428.82 C 481.572 1427.78 483.84 1414.32 483.653 1393.94 C 483.572 1385.23 484.863 1377.71 487.339 1369.38 C 492.426 1366.16 493.484 1365.62 499.326 1364.29 z M 505.996 1420.3 C 510.266 1413.03 512.295 1378.4 504.103 1373.23 L 498.901 1372.45 C 493.572 1382.61 494.683 1404.79 496.586 1416.38 C 497.245 1420.4 502.796 1420.27 505.996 1420.3 z"/>
<path transform="translate(0,0)" fill="rgb(37,93,129)" d="M 1144.45 1185.98 C 1154.3 1185.89 1196.95 1180.9 1194.47 1194.06 C 1189.51 1197.97 1182.6 1196.79 1176.14 1196.58 C 1177.5 1220.8 1176.95 1249.63 1177.01 1274.25 C 1176.88 1279 1177.14 1283.57 1177.34 1288.32 C 1172.5 1288.62 1166.83 1288.56 1161.92 1288.63 C 1161.36 1263.45 1160.54 1220.94 1162.1 1196.6 C 1156.42 1196.92 1149.33 1198.27 1145.09 1194.91 C 1143.4 1191.85 1144.09 1189.54 1144.45 1185.98 z"/>
<path transform="translate(0,0)" fill="rgb(16,14,9)" fill-opacity="0.988235" d="M 787.838 1364.34 C 792.755 1364.36 802.064 1364.49 805.079 1368.93 C 810.547 1376.98 810.178 1418.34 809.069 1426.21 C 806.325 1428.94 808.001 1427.96 803.462 1428.43 C 799.546 1426.56 800.826 1427.3 798.26 1422.93 C 788.644 1423.61 783.355 1437.59 773.664 1420.71 C 767.02 1387.41 810.026 1396.49 794.42 1373.34 C 786.98 1371.82 786.398 1382.88 776.813 1385.35 C 773.391 1384.21 774.65 1385.23 772.787 1382.32 C 772.313 1372.76 779.272 1366.63 787.838 1364.34 z M 787.431 1419.54 C 798.183 1417.1 799.574 1407.73 797.331 1398.05 L 795.396 1396.76 C 786.72 1402.69 779.914 1409.06 787.431 1419.54 z"/>
<path transform="translate(0,0)" fill="rgb(16,14,9)" fill-opacity="0.988235" d="M 1425.1 1364.23 C 1430.44 1364.3 1441.03 1365.75 1442.53 1371.29 C 1445.43 1381.96 1447.1 1418.35 1444.8 1426.75 C 1441.76 1428.95 1443.49 1428.22 1439.13 1428.23 C 1436.03 1426.87 1435.83 1425.84 1434.31 1423.03 C 1426.02 1422.4 1420.13 1439.02 1409.25 1420.04 C 1405.18 1389.8 1436 1396.23 1433.45 1379.83 C 1432.96 1376.72 1431.13 1373.98 1428.45 1372.33 C 1420.18 1375.36 1422.09 1384.68 1412.32 1385.32 C 1408.6 1383.18 1409.7 1384.66 1408.3 1381.24 C 1409.4 1371.6 1416.03 1366 1425.1 1364.23 z M 1423.4 1419.55 C 1426.02 1418.88 1429.6 1418.24 1431.11 1415.76 C 1433.74 1411.45 1436.54 1399.47 1431.34 1396.8 C 1422.77 1402.69 1415.98 1409.21 1423.4 1419.55 z"/>
<path transform="translate(0,0)" fill="rgb(16,14,9)" fill-opacity="0.988235" d="M 1310.18 1364.25 C 1332.84 1363.71 1330.61 1379.52 1331.63 1396.89 C 1323.06 1396.94 1314.49 1396.85 1305.93 1396.6 C 1305.99 1403.72 1304.07 1423.64 1316.03 1420.11 C 1318.59 1417.34 1319.82 1410.9 1321.28 1406.67 C 1323.86 1405 1327.23 1405.61 1330.52 1405.7 C 1331.69 1414.94 1329.35 1425.13 1319.61 1428.09 C 1297.47 1435.09 1293.31 1412.04 1294.3 1395.48 C 1295.15 1381.32 1293.56 1368.19 1310.18 1364.25 z M 1316.75 1390.43 L 1318.92 1390.02 C 1321.94 1385.13 1319.8 1378.27 1316.54 1373.97 C 1313.45 1372.46 1313.66 1372.55 1310.21 1372.37 C 1307.8 1377.03 1305.11 1382.02 1306.2 1387.26 C 1309.58 1391.88 1311.08 1390.79 1316.75 1390.43 z"/>
<path transform="translate(0,0)" fill="rgb(21,6,3)" d="M 1226.46 1304.09 L 1539.91 1304.41 L 1618.44 1304.85 C 1626.52 1304.9 1649.36 1304.45 1656.14 1305.83 L 1656.4 1306.59 C 1647.31 1307.98 1618.47 1307.67 1608.23 1307.76 L 1502.45 1307.95 L 1318.99 1308.27 C 1290.84 1308.26 1256.5 1309.07 1228.84 1307.95 C 1228.5 1305.85 1228.18 1306.23 1226.46 1304.09 z"/>
<path transform="translate(0,0)" fill="rgb(37,93,129)" d="M 745.394 1185.15 L 760.116 1185.09 C 759.571 1197.72 761.28 1284.73 758.926 1288.4 C 754.556 1288.3 749.648 1288.6 745.237 1288.77 C 746.864 1256.38 743.738 1218.28 745.394 1185.15 z"/>
<path transform="translate(0,0)" fill="rgb(16,14,9)" d="M 846.368 1364.26 C 849.229 1364.7 852.096 1364.97 853.401 1367.55 C 858.802 1378.26 856.816 1417.06 854.723 1427.85 C 852.059 1428.97 852.106 1428.7 849.213 1428.05 C 837.758 1419.32 852.431 1378.33 839.535 1373.59 C 836.166 1374.11 835.615 1374.73 832.829 1376.6 L 831.953 1377.2 C 830.234 1393.45 832.871 1410.58 830.572 1426.71 C 830.037 1430.47 823.905 1427.63 821.855 1425.88 C 817.655 1416.52 820.692 1400.82 820.324 1390.36 C 820.092 1383.79 819.174 1371.78 820.937 1365.83 C 827.92 1361.55 828 1367.59 834.326 1367.93 C 833.308 1367.88 845.498 1364.48 846.368 1364.26 z"/>
<path transform="translate(0,0)" fill="rgb(16,14,9)" fill-opacity="0.988235" d="M 651.012 1365.1 C 654.655 1364.85 657.095 1364.37 660.566 1365.51 C 667.051 1374.12 655.377 1411.25 666.083 1418.76 C 669.754 1419.18 670.367 1418.67 673.715 1417.26 C 680.857 1405.99 667.977 1368.6 681.454 1362.86 C 687.754 1364.19 686.996 1372.64 686.837 1377.5 C 686.863 1384.81 688.055 1423.7 685.076 1427.84 C 679.122 1429.27 676.092 1425.15 671.088 1425.72 C 664.31 1426.49 659.454 1431.06 653.057 1425.74 C 648.938 1417.11 650.823 1377.4 651.012 1365.1 z"/>
<path transform="translate(0,0)" fill="rgb(16,14,9)" fill-opacity="0.988235" d="M 974.214 1364.9 C 983.042 1364.47 980.918 1366.03 987.044 1367.48 C 989.774 1368.12 1001.29 1361.8 1006.44 1365.77 C 1009.32 1367.99 1010.23 1376.79 1010.13 1379.89 C 1009.88 1387.58 1011.99 1423.33 1008.31 1427.43 C 1004.23 1428.32 1004.43 1428.29 1000.28 1427.58 C 998.291 1424.96 998.985 1390.8 998.963 1384.75 C 999.037 1380.55 999.034 1380 998.141 1375.94 C 995.518 1373.05 991.435 1372.17 988.733 1375.38 C 979.867 1385.92 991.096 1419.63 981.693 1428.22 C 977.905 1428.95 979.812 1428.97 975.791 1427.66 C 972.82 1423.86 974.124 1373.38 974.214 1364.9 z"/>
<path transform="translate(0,0)" fill="rgb(16,14,9)" d="M 1247.18 1364.91 C 1255.25 1364.55 1256.06 1367.44 1260.96 1367.53 C 1268.11 1367.67 1271.85 1361.01 1280.67 1366.38 C 1284.74 1378.76 1283.42 1404.09 1283.41 1418.05 C 1283.4 1422.44 1281.98 1425.77 1278.53 1428.49 C 1274.81 1428.72 1276.59 1429.02 1273.06 1427.32 C 1271.45 1423.66 1272 1392.1 1272 1385.75 C 1272.08 1379.62 1272.03 1369.32 1262.18 1373.79 C 1252.84 1385.35 1263.94 1418.55 1254.81 1428.03 C 1250.87 1429.12 1252.88 1429.02 1248.56 1427.8 C 1245.98 1424.17 1247.08 1373.03 1247.18 1364.91 z"/>
<path transform="translate(0,0)" fill="rgb(16,14,9)" d="M 1598.02 1409.21 C 1601.44 1399.56 1604.05 1369.24 1609.79 1365.11 C 1612.96 1364.66 1613.37 1364.36 1616.47 1365.31 C 1618.43 1371.5 1612.01 1394.65 1610.28 1402.15 C 1608.2 1412.07 1605.37 1433.51 1597.75 1440.62 C 1594.42 1443.73 1584.61 1444.7 1581.42 1439.62 L 1582.32 1437.48 C 1585.64 1434.41 1588.95 1434.28 1593.48 1433.33 C 1590.93 1416.42 1582.91 1381.79 1578.22 1365.11 C 1582.46 1364.92 1584.52 1364.47 1588.4 1365.89 C 1592.22 1369.29 1596.45 1401.37 1598.02 1409.21 z"/>
<path transform="translate(0,0)" fill="rgb(16,14,9)" d="M 1367.9 1339.9 C 1376.3 1339.09 1398.77 1337.67 1403.27 1345.2 C 1399.53 1350.02 1385.82 1348.55 1380.25 1348.23 L 1380.15 1378.22 C 1385.43 1378 1396.02 1376.26 1396.78 1383.47 C 1392.72 1388.43 1386.51 1386.78 1380.61 1386.35 C 1378.83 1396.83 1382.71 1421.75 1378.29 1427.63 C 1373.92 1428.21 1374.15 1428.22 1369.91 1427 C 1366.6 1422.53 1368.02 1352.27 1367.9 1339.9 z"/>
<path transform="translate(0,0)" fill="rgb(16,14,9)" d="M 545.211 1343.07 C 550.53 1342.98 554.876 1342.14 557.66 1347.05 C 554.57 1353.94 546.244 1351.47 547.156 1362.62 C 550.384 1366.16 550.173 1363.62 556.35 1366.08 C 557.823 1369.44 557.508 1367.68 556.986 1371.57 C 554.039 1374.27 553.475 1372.65 548.415 1374.39 C 546.08 1379.84 547.123 1415.69 546.925 1425.08 C 546.83 1425.54 546.044 1426.88 545.785 1427.37 C 542.194 1428.67 541.255 1428.36 537.514 1428.05 C 532.619 1422.81 538.652 1380.28 534.528 1374.42 C 531.613 1373.85 530.764 1373.98 528.455 1372.14 C 527.883 1369.07 527.659 1369.18 528.938 1366.4 C 543.96 1359.53 528.497 1350.59 545.211 1343.07 z"/>
<path transform="translate(0,0)" fill="rgb(16,14,9)" fill-opacity="0.980392" d="M 1134.59 1364.16 C 1145.4 1364.56 1155.3 1372.43 1148.88 1383.03 C 1142.43 1384.88 1146.36 1377.28 1138.48 1373.04 C 1135.01 1373.06 1134.89 1372.83 1131.84 1374.67 C 1129.3 1383.82 1142.35 1392.2 1147.5 1399.18 C 1158.81 1414.54 1157.13 1427.33 1135.78 1428.62 C 1125.66 1427.48 1114.55 1416.89 1122.41 1409.47 C 1125.2 1409.16 1125.63 1408.73 1127.94 1410.08 L 1129.66 1413.64 C 1133.01 1420.61 1138.15 1422.97 1143.98 1416.83 C 1145.81 1405.27 1122.67 1394.81 1120.32 1381.97 C 1118.28 1370.83 1124.19 1366.75 1134.59 1364.16 z"/>
<path transform="translate(0,0)" fill="rgb(16,14,9)" d="M 416.121 1338.94 C 419.725 1339.93 419.311 1339.22 421.341 1341.57 C 422.773 1357.55 421.322 1407.51 420.783 1426.51 C 420.161 1427.27 419.54 1428.02 418.918 1428.78 C 414.561 1428.24 413.581 1428.76 410.586 1426.45 C 409.815 1418.98 410.21 1404.97 410.187 1397.05 C 410.065 1378.73 410.096 1360.4 410.278 1342.08 C 411.862 1339.51 412.34 1340.14 416.121 1338.94 z"/>
<path transform="translate(0,0)" fill="rgb(16,14,9)" fill-opacity="0.988235" d="M 437.827 1338.94 C 440.954 1339.13 443.199 1338.87 445.646 1340.69 C 447.198 1349.09 447.46 1424.01 444.741 1428.33 C 441.642 1428.3 440.643 1428.31 437.494 1427.83 C 435.982 1426.36 435.589 1426.66 435.542 1424.98 C 434.777 1397.53 434.597 1368.91 435.751 1341.48 C 436.443 1340.64 437.135 1339.79 437.827 1338.94 z"/>
<path transform="translate(0,0)" fill="rgb(16,14,9)" d="M 1563.74 1339.18 C 1567.88 1340.06 1567.43 1339.24 1569.14 1341.8 C 1569.6 1352.09 1570.83 1423.74 1567.77 1428.32 C 1564.37 1428.3 1562.2 1428.69 1559.41 1426.84 C 1557.13 1422.25 1558.17 1352.46 1558.4 1342.11 C 1560.17 1339.52 1559.85 1340.31 1563.74 1339.18 z"/>
<path transform="translate(0,0)" fill="rgb(16,14,9)" d="M 1097.05 1364.79 C 1101.4 1364.69 1103.04 1364.37 1107.09 1365.67 C 1109.25 1369.68 1108.34 1420.09 1108.03 1428.32 C 1103.84 1428.3 1102.43 1428.5 1098.48 1427.38 C 1095.46 1423.17 1096.95 1374.39 1097.05 1364.79 z"/>
<path transform="translate(0,0)" fill="rgb(16,14,9)" d="M 949.709 1365.04 C 953.979 1364.75 955.51 1364.4 959.569 1365.4 C 962.605 1369.54 961.026 1418.7 961.215 1428.04 C 956.928 1428.29 955.479 1428.64 951.442 1427.53 C 948.597 1423.58 949.844 1374.22 949.709 1365.04 z"/>
<path transform="translate(0,0)" fill="rgb(16,14,9)" d="M 1533.02 1364.78 C 1537.43 1364.7 1538.38 1364.64 1542.64 1365.45 C 1545.36 1368.43 1544.29 1419.98 1544 1428.2 C 1540.35 1428.18 1536.77 1428.62 1533.75 1426.78 C 1531.81 1420.07 1532.94 1374.41 1533.02 1364.78 z"/>
<path transform="translate(0,0)" fill="rgb(142,64,5)" d="M 973.206 795.832 C 979.98 794.72 1001.49 792.52 1002.94 801.47 C 998.415 808.613 983.322 809.456 975.327 810.568 C 975.103 814.824 974.389 818.549 976.144 822.27 C 978.087 823.92 977.933 823.987 980.365 824.601 C 976.604 826.037 972.728 826.418 970.081 823.214 C 970.969 814.326 971.969 804.635 973.206 795.832 z"/>
<path transform="translate(0,0)" fill="rgb(37,93,129)" d="M 938.509 1245.01 C 948.003 1244.8 958.705 1242.48 966.489 1246.5 C 968.737 1250.12 967.906 1250.28 967.923 1255.37 C 958.456 1254.88 945.887 1257.24 939.365 1253.63 C 937.429 1249.86 938.209 1249.99 938.509 1245.01 z"/>
<path transform="translate(0,0)" fill="rgb(120,47,6)" d="M 827.135 1029.06 C 833.399 1029.49 849.638 1030.33 853.373 1035.96 C 852.176 1038.55 852.272 1037.8 848.804 1039.25 C 842.536 1038.93 836.371 1037.09 830.708 1037.4 C 828.164 1035.64 828.175 1035.24 826.61 1032.64 C 827.224 1030.97 827.035 1030.91 827.135 1029.06 z"/>
<path transform="translate(0,0)" fill="rgb(120,47,6)" d="M 969.969 831.212 C 968.782 827.594 969.219 826.869 970.081 823.214 C 972.728 826.418 976.604 826.037 980.365 824.601 C 986.982 824.053 989.659 824.259 995.965 826.392 L 995.728 827.602 C 989.483 830.033 976.557 832.034 969.969 831.212 z"/>
<path transform="translate(0,0)" fill="rgb(16,14,9)" fill-opacity="0.980392" d="M 1540.09 1343.08 C 1543.2 1344.01 1541.94 1343.2 1544.09 1345.51 C 1546.03 1351.63 1544.91 1354.39 1538.74 1355.99 C 1529.98 1354.82 1528.84 1345.08 1540.09 1343.08 z"/>
<path transform="translate(0,0)" fill="rgb(241,188,77)" d="M 1057.24 1005.82 C 1059.33 1002.38 1061.41 1003.37 1065.05 1003.45 C 1065.48 1009.84 1066.04 1015.89 1065.63 1022.29 L 1062.42 1022.87 C 1059.44 1021.09 1060.3 1021.16 1058.83 1016.84 C 1059.12 1014.2 1057.78 1008.65 1057.24 1005.82 z"/>
<path transform="translate(0,0)" fill="rgb(16,14,9)" fill-opacity="0.976471" d="M 949.933 1344.04 C 955.112 1343.55 957.195 1342.55 960.934 1346.28 C 961.523 1350.35 961.233 1351.17 960.607 1355.34 C 956.91 1355.52 954.169 1356.11 950.951 1354.45 C 949.161 1351.44 949.79 1347.7 949.933 1344.04 z"/>
<path transform="translate(0,0)" fill="rgb(16,14,9)" fill-opacity="0.976471" d="M 1097.43 1344.11 C 1102.21 1343.82 1104.55 1343.08 1107.97 1345.92 C 1109 1349.27 1108.15 1351.84 1107.54 1355.35 C 1103.77 1355.5 1100.95 1356.16 1097.97 1354.11 C 1096.17 1350.83 1097.02 1347.97 1097.43 1344.11 z"/>
<path transform="translate(0,0)" fill="rgb(16,14,9)" fill-opacity="0.203922" d="M 333.589 1307.22 C 325.888 1309.16 304.562 1308.24 296.385 1307.46 L 295.314 1306.68 L 294.457 1307.16 L 293.342 1306.55 L 293.359 1306.47 C 301.439 1305.73 307.254 1304.46 315.458 1304.95 L 312.139 1306.45 C 316.673 1307.53 328.337 1307.21 333.589 1307.22 z"/>
<path transform="translate(0,0)" fill="rgb(245,152,6)" fill-opacity="0.972549" d="M 830.708 1037.4 C 836.371 1037.09 842.536 1038.93 848.804 1039.25 C 844.869 1041.21 844.165 1041.4 841.038 1044.34 C 837.035 1043.34 833.682 1040.08 830.708 1037.4 z"/>
<path transform="translate(0,0)" fill="rgb(37,93,129)" fill-opacity="0.0117647" d="M 1678.34 1217.27 L 1677.95 1238.23 C 1675.03 1232.66 1675.4 1236.37 1674.33 1229.69 C 1675.49 1224.32 1676.33 1222.28 1678.34 1217.27 z"/>
<path transform="translate(0,0)" fill="rgb(37,93,129)" fill-opacity="0.172549" d="M 1328.49 1225.75 L 1329.23 1221.63 L 1330.36 1221.11 C 1331.51 1227.77 1331.06 1235.75 1330.87 1242.59 C 1328.59 1235.54 1331.77 1230.45 1328.49 1225.75 z"/>
<path transform="translate(0,0)" fill="rgb(37,93,129)" fill-opacity="0.0588235" d="M 1288.66 1230.61 C 1288.77 1227.22 1288.51 1224.32 1289.95 1221.31 C 1291.86 1224.24 1292.4 1229.79 1293.02 1233.49 L 1288.66 1230.61 z"/>
<path transform="translate(0,0)" fill="rgb(37,93,129)" fill-opacity="0.0313725" d="M 800.821 1246.85 L 805.072 1251.8 C 804.34 1254.39 804.378 1255.49 802.379 1257.19 C 800.888 1254.84 801.002 1249.92 800.821 1246.85 z"/>
<path transform="translate(0,0)" fill="rgb(37,93,129)" fill-opacity="0.0745098" d="M 1635.94 1230.06 C 1635.8 1227.17 1635.17 1224.07 1636.64 1221.84 C 1638.49 1223.98 1638.64 1226.18 1639.26 1229 L 1635.94 1230.06 z"/>
</svg>